<?xml version="1.0" encoding="UTF-8"?>
<svg width="29px" height="30px" viewBox="0 0 29 30" version="1.1" xmlns="http://www.w3.org/2000/svg" xmlns:xlink="http://www.w3.org/1999/xlink">
    <!-- Generator: Sketch 61 (89581) - https://sketch.com -->
    <title>cc logo</title>
    <desc>Created with Sketch.</desc>
    <defs>
        <polygon id="path-1" points="0 0.281390625 28.6791875 0.281390625 28.6791875 28.9999094 0 28.9999094"></polygon>
    </defs>
    <g id="Symbols" stroke="none" stroke-width="1" fill="none" fill-rule="evenodd">
        <g id="Footer" transform="translate(-1334.000000, -37.000000)">
            <g id="cc-logo" transform="translate(1334.000000, 37.000000)">
                <g id="Group-3" transform="translate(0.197535, 0.421875)">
                    <mask id="mask-2" fill="white">
                        <use xlink:href="#path-1"></use>
                    </mask>
                    <g id="Clip-2"></g>
                    <path d="M14.3590781,2.87770625 C17.5853281,2.87770625 20.4572344,4.09706563 22.6992969,6.34003438 C24.9023906,8.542675 26.0823281,11.4540031 26.0823281,14.6403781 C26.0823281,17.8666281 24.9413594,20.6995656 22.7387187,22.8627844 C20.4173594,25.1442688 17.4276406,26.3645344 14.3590781,26.3645344 C11.2515469,26.3645344 8.34021875,25.1447219 6.09770312,22.9017531 C3.8551875,20.6596906 2.59640625,17.7089406 2.59640625,14.6403781 C2.59640625,11.5328469 3.8551875,8.58255 6.09770312,6.30015937 C8.30079687,4.05809687 11.1332812,2.87770625 14.3590781,2.87770625 M14.3201094,0.2813 C10.3860781,0.2813 6.92420313,1.73719062 4.24895312,4.45140937 C1.49485937,7.24447188 0,10.8640344 0,14.6403781 C0,18.4565969 1.4554375,21.9973156 4.20953125,24.7509562 C6.963625,27.50505 10.5433125,28.9999094 14.3201094,28.9999094 C18.0964531,28.9999094 21.7554375,27.50505 24.5879219,24.7119875 C27.263625,22.0766125 28.6796406,18.5748625 28.6796406,14.6403781 C28.6796406,10.7457687 27.263625,7.20550313 24.5485,4.49083125 C21.7948594,1.7367375 18.2541406,0.2813 14.3201094,0.2813" id="Fill-1" fill="#FFFFFF" mask="url(#mask-2)"></path>
                </g>
                <path d="M14.1502408,12.5110544 C13.3439799,11.016625 11.9683817,10.421875 10.3716248,10.421875 C8.04743131,10.421875 6.19753547,12.0930354 6.19753547,14.9216461 C6.19753547,17.7983312 7.93662674,19.421875 10.4504492,19.421875 C12.0634214,19.421875 13.4390196,18.5212798 14.1975355,17.1559646 L12.4269145,16.2398025 C12.0314412,17.2035813 11.4305742,17.4934017 10.6720583,17.4934017 C9.3595196,17.4934017 8.75865253,16.3840259 8.75865253,14.9216461 C8.75865253,13.4597241 9.26493033,12.3503483 10.6720583,12.3503483 C11.0513162,12.3503483 11.8102825,12.5591289 12.2530504,13.5238234 L14.1502408,12.5110544 Z" id="Fill-4" fill="#FFFFFF"></path>
                <path d="M23.1502408,12.5110544 C22.3439799,11.016625 20.9683817,10.421875 19.3716248,10.421875 C17.0474313,10.421875 15.1975355,12.0930354 15.1975355,14.9216461 C15.1975355,17.7983312 16.9366267,19.421875 19.4504492,19.421875 C21.0634214,19.421875 22.4390196,18.5212798 23.1975355,17.1559646 L21.4269145,16.2398025 C21.0314412,17.2035813 20.4305742,17.4934017 19.6720583,17.4934017 C18.3595196,17.4934017 17.7586525,16.3840259 17.7586525,14.9216461 C17.7586525,13.4597241 18.2649303,12.3503483 19.6720583,12.3503483 C20.0513162,12.3503483 20.8102825,12.5591289 21.2530504,13.5238234 L23.1502408,12.5110544 Z" id="Fill-6" fill="#FFFFFF"></path>
            </g>
        </g>
    </g>
</svg>