<?xml version="1.0" encoding="UTF-8"?>
<svg width="134px" height="31px" viewBox="0 0 134 31" version="1.1" xmlns="http://www.w3.org/2000/svg" xmlns:xlink="http://www.w3.org/1999/xlink">
    <!-- Generator: Sketch 61 (89581) - https://sketch.com -->
    <title>Group 59</title>
    <desc>Created with Sketch.</desc>
    <defs>
        <polygon id="path-1" points="1.17325 2.0175 23.3200798 2.0175 23.3200798 32.49975 1.17325 32.49975"></polygon>
        <polygon id="path-3" points="0 2.018 18.5635 2.018 18.5635 32.5 0 32.5"></polygon>
        <polygon id="path-5" points="0 32.5 133.9975 32.5 133.9975 2.0175 0 2.0175"></polygon>
    </defs>
    <g id="Symbols" stroke="none" stroke-width="1" fill="none" fill-rule="evenodd">
        <g id="Footer" transform="translate(-197.000000, -41.000000)">
            <g id="Group-59" transform="translate(197.000000, 39.000000)">
                <polygon id="Fill-1" fill="#FFFFFF" points="24.3325 32.9815 30.2725 32.9815 30.2725 2.5015 24.3325 2.5015"></polygon>
                <polygon id="Fill-2" fill="#FFFFFF" points="36.505 32.9815 42.445 32.9815 42.445 2.5015 36.505 2.5015"></polygon>
                <g id="Group-58" transform="translate(0.000000, 0.481500)">
                    <g id="Group-5" transform="translate(47.500000, 0.000000)">
                        <mask id="mask-2" fill="white">
                            <use xlink:href="#path-1"></use>
                        </mask>
                        <g id="Clip-4"></g>
                        <path d="M16.08075,9.20975 C15.05325,7.97475 13.67825,7.31725 11.62575,7.31725 L7.12825,7.31725 L7.12825,27.19475 L11.62575,27.19475 C13.67825,27.19475 15.05325,26.55725 16.08075,25.30725 C17.18825,23.94225 17.36075,21.75725 17.36075,17.13475 C17.36075,12.51725 17.18825,10.58725 16.08075,9.20975 M20.22575,29.58975 C18.21825,31.60725 15.34825,32.49975 12.17325,32.49975 L1.17325,32.49975 L1.17325,2.01725 L12.17325,2.01725 C15.34825,2.01725 18.21825,2.91475 20.22575,4.94225 C23.65075,8.35225 23.31075,12.54725 23.31075,17.13475 C23.31075,21.70725 23.65075,26.16725 20.22575,29.58975" id="Fill-3" fill="#FFFFFF" mask="url(#mask-2)"></path>
                    </g>
                    <g id="Group-8">
                        <mask id="mask-4" fill="white">
                            <use xlink:href="#path-3"></use>
                        </mask>
                        <g id="Clip-7"></g>
                        <path d="M11.6935,27.1955 C9.641,27.1955 8.2685,26.558 7.2335,25.308 C6.1285,23.9405 5.956,21.7555 5.956,17.1355 C5.956,12.518 6.1285,10.5855 7.2335,9.2105 C8.2685,7.9755 9.641,7.318 11.6935,7.318 L18.5635,7.318 L18.5635,2.018 L11.136,2.018 C7.966,2.018 5.096,2.9155 3.081,4.943 C-0.3365,8.353 0.0085,12.548 0.0085,17.1355 C0.0085,21.708 -0.3365,26.168 3.081,29.5905 C5.096,31.608 7.966,32.5005 11.136,32.5005 L18.5635,32.5005 L18.5635,27.1955 L11.6935,27.1955 Z" id="Fill-6" fill="#FFFFFF" mask="url(#mask-4)"></path>
                    </g>
                    <path d="M82.477,8.57975 C81.902,8.57975 81.367,8.35975 80.967,7.96225 C80.4195,7.40975 80.412,6.86725 80.412,5.51225 C80.412,4.15225 80.4195,3.61725 80.967,3.06725 C81.367,2.66975 81.902,2.44725 82.477,2.44725 C83.562,2.44725 84.322,3.12475 84.527,4.20975 L84.062,4.20975 C83.882,3.36975 83.2895,2.85475 82.477,2.85475 C82.0445,2.85475 81.637,3.01475 81.3345,3.31975 C80.902,3.75225 80.867,4.22725 80.867,5.51225 C80.867,6.79975 80.902,7.27725 81.3345,7.70725 C81.637,8.01225 82.0445,8.17225 82.477,8.17225 C83.2895,8.17225 83.8995,7.65725 84.0795,6.81725 L84.527,6.81725 C84.322,7.90225 83.5445,8.57975 82.477,8.57975" id="Fill-9" fill="#FFFFFF"></path>
                    <path d="M88.86375,3.321 C88.55875,3.016 88.15375,2.8535 87.72125,2.8535 C87.28875,2.8535 86.88125,3.016 86.57625,3.321 C86.14625,3.7535 86.10875,4.226 86.10875,5.5135 C86.10875,6.801 86.14625,7.276 86.57625,7.7085 C86.88125,8.0135 87.28875,8.171 87.72125,8.171 C88.15375,8.171 88.55875,8.0135 88.86375,7.7085 C89.29625,7.276 89.33125,6.801 89.33125,5.5135 C89.33125,4.226 89.29625,3.7535 88.86375,3.321 M89.22875,7.961 C88.82875,8.361 88.29625,8.581 87.72125,8.581 C87.14625,8.581 86.61125,8.361 86.21125,7.961 C85.66375,7.411 85.65375,6.8685 85.65375,5.5135 C85.65375,4.151 85.66375,3.616 86.21125,3.066 C86.61125,2.6685 87.14625,2.446 87.72125,2.446 C88.29625,2.446 88.82875,2.6685 89.22875,3.066 C89.77875,3.616 89.78625,4.151 89.78625,5.5135 C89.78625,6.8685 89.77875,7.411 89.22875,7.961" id="Fill-11" fill="#FFFFFF"></path>
                    <path d="M93.57325,2.906 L91.87075,2.906 L91.87075,5.5635 L93.57325,5.5635 C94.41325,5.5635 94.98825,5.141 94.98825,4.2335 C94.98825,3.3285 94.41325,2.906 93.57325,2.906 M93.62575,5.971 L91.87075,5.971 L91.87075,8.5285 L91.41575,8.5285 L91.41575,2.4985 L93.62575,2.4985 C94.66575,2.4985 95.44575,3.126 95.44575,4.2335 C95.44575,5.336 94.66575,5.971 93.62575,5.971" id="Fill-13" fill="#FFFFFF"></path>
                    <polygon id="Fill-15" fill="#FFFFFF" points="96.75925 2.49825 100.41925 2.49825 100.41925 2.90575 97.21675 2.90575 97.21675 5.28575 99.94175 5.28575 99.94175 5.69075 97.21675 5.69075 97.21675 8.12325 100.41925 8.12325 100.41925 8.52825 96.75925 8.52825"></polygon>
                    <polygon id="Fill-17" fill="#FFFFFF" points="102.28175 3.28675 102.28175 8.52925 101.82425 8.52925 101.82425 2.49925 102.28175 2.49925 105.76425 7.72425 105.76425 2.49925 106.21925 2.49925 106.21925 8.52925 105.76425 8.52925"></polygon>
                    <polygon id="Fill-19" fill="#FFFFFF" points="111.686 5.6915 108.541 5.6915 108.541 8.529 108.086 8.529 108.086 2.499 108.541 2.499 108.541 5.2865 111.686 5.2865 111.686 2.499 112.1435 2.499 112.1435 8.529 111.686 8.529"></polygon>
                    <path d="M114.362,6.656 L116.887,6.656 L115.6245,3.1085 L114.362,6.656 Z M117.0295,7.0635 L114.217,7.0635 L113.692,8.5285 L113.202,8.5285 L115.422,2.4985 L115.827,2.4985 L118.047,8.5285 L117.5545,8.5285 L117.0295,7.0635 Z" id="Fill-21" fill="#FFFFFF"></path>
                    <path d="M122.43325,7.884 C122.03575,8.3265 121.45825,8.579 120.85075,8.579 C120.27575,8.579 119.74075,8.359 119.34325,7.9615 C118.79075,7.4115 118.78325,6.869 118.78325,5.514 C118.78325,4.1515 118.79075,3.6165 119.34325,3.0665 C119.74075,2.669 120.27575,2.4465 120.85075,2.4465 C121.90075,2.4465 122.73075,3.149 122.90575,4.209 L122.45075,4.209 C122.27325,3.369 121.66325,2.854 120.85075,2.854 C120.41825,2.854 120.01075,3.0165 119.70575,3.3215 C119.27325,3.754 119.24325,4.2265 119.24325,5.514 C119.24325,6.799 119.27325,7.2765 119.70575,7.709 C120.01075,8.014 120.41825,8.1715 120.85075,8.1715 C121.32575,8.1715 121.79075,7.969 122.10325,7.589 C122.36575,7.259 122.46825,6.9115 122.46825,6.394 L122.46825,5.854 L120.85075,5.854 L120.85075,5.444 L122.92575,5.444 L122.92575,6.429 C122.92575,7.064 122.79825,7.504 122.43325,7.884" id="Fill-23" fill="#FFFFFF"></path>
                    <polygon id="Fill-25" fill="#FFFFFF" points="124.53525 2.49825 128.19275 2.49825 128.19275 2.90575 124.99275 2.90575 124.99275 5.28575 127.71775 5.28575 127.71775 5.69075 124.99275 5.69075 124.99275 8.12325 128.19275 8.12325 128.19275 8.52825 124.53525 8.52825"></polygon>
                    <polygon id="Fill-27" fill="#FFFFFF" points="130.05775 3.28675 130.05775 8.52925 129.60025 8.52925 129.60025 2.49925 130.05775 2.49925 133.54025 7.72425 133.54025 2.49925 133.99525 2.49925 133.99525 8.52925 133.54025 8.52925"></polygon>
                    <mask id="mask-6" fill="white">
                        <use xlink:href="#path-5"></use>
                    </mask>
                    <g id="Clip-30"></g>
                    <polygon id="Fill-29" fill="#FFFFFF" mask="url(#mask-6)" points="80.6475 16.4175 81.105 16.4175 81.105 10.3875 80.6475 10.3875"></polygon>
                    <polygon id="Fill-31" fill="#FFFFFF" mask="url(#mask-6)" points="83.42675 11.175 83.42675 16.4175 82.96675 16.4175 82.96675 10.3875 83.42675 10.3875 86.90675 15.6125 86.90675 10.3875 87.36425 10.3875 87.36425 16.4175 86.90675 16.4175"></polygon>
                    <path d="M90.7365,16.468 C89.849,16.468 89.279,16.223 88.729,15.673 L89.0515,15.3505 C89.594,15.893 90.0415,16.063 90.7615,16.063 C91.719,16.063 92.3115,15.603 92.3115,14.818 C92.3115,14.453 92.209,14.1655 91.9815,13.9705 C91.7515,13.793 91.609,13.7155 91.109,13.648 L90.4065,13.538 C89.949,13.4705 89.594,13.3255 89.3315,13.098 C89.019,12.8355 88.8565,12.4605 88.8565,11.988 C88.8565,10.973 89.5665,10.338 90.7265,10.338 C91.474,10.338 91.9465,10.5405 92.464,10.9905 L92.1665,11.2855 C91.814,10.9455 91.414,10.7255 90.7015,10.7255 C89.8215,10.7255 89.3065,11.2005 89.3065,11.9705 C89.3065,12.318 89.4065,12.5805 89.619,12.7605 C89.8315,12.938 90.1765,13.073 90.5165,13.1305 L91.169,13.233 C91.734,13.308 91.999,13.418 92.2465,13.6305 C92.574,13.903 92.769,14.318 92.769,14.8005 C92.769,15.8255 91.999,16.468 90.7365,16.468" id="Fill-32" fill="#FFFFFF" mask="url(#mask-6)"></path>
                    <polygon id="Fill-33" fill="#FFFFFF" mask="url(#mask-6)" points="95.778 16.41675 95.318 16.41675 95.318 10.79425 93.5255 10.79425 93.5255 10.38675 97.5805 10.38675 97.5805 10.79425 95.778 10.79425"></polygon>
                    <polygon id="Fill-34" fill="#FFFFFF" mask="url(#mask-6)" points="98.765 16.4175 99.225 16.4175 99.225 10.3875 98.765 10.3875"></polygon>
                    <polygon id="Fill-35" fill="#FFFFFF" mask="url(#mask-6)" points="102.66275 16.41675 102.20525 16.41675 102.20525 10.79425 100.41025 10.79425 100.41025 10.38675 104.46775 10.38675 104.46775 10.79425 102.66275 10.79425"></polygon>
                    <path d="M107.4235,16.468 C106.2135,16.468 105.356,15.638 105.356,14.4605 L105.356,10.3855 L105.8135,10.3855 L105.8135,14.403 C105.8135,15.4005 106.4485,16.063 107.4235,16.063 C108.3985,16.063 109.0335,15.4005 109.0335,14.403 L109.0335,10.3855 L109.491,10.3855 L109.491,14.4605 C109.491,15.638 108.6335,16.468 107.4235,16.468" id="Fill-36" fill="#FFFFFF" mask="url(#mask-6)"></path>
                    <polygon id="Fill-37" fill="#FFFFFF" mask="url(#mask-6)" points="112.63325 16.41675 112.17575 16.41675 112.17575 10.79425 110.38075 10.79425 110.38075 10.38675 114.43825 10.38675 114.43825 10.79425 112.63325 10.79425"></polygon>
                    <polygon id="Fill-38" fill="#FFFFFF" mask="url(#mask-6)" points="115.624 10.3865 119.2815 10.3865 119.2815 10.794 116.0815 10.794 116.0815 13.174 118.8065 13.174 118.8065 13.579 116.0815 13.579 116.0815 16.0115 119.2815 16.0115 119.2815 16.4165 115.624 16.4165"></polygon>
                    <path d="M127.77975,11.20925 C127.47475,10.90425 127.06725,10.74175 126.63475,10.74175 C126.20225,10.74175 125.79725,10.90425 125.49225,11.20925 C125.05975,11.64175 125.02475,12.11425 125.02475,13.40175 C125.02475,14.69175 125.05975,15.16425 125.49225,15.59675 C125.79725,15.90175 126.20225,16.06175 126.63475,16.06175 C127.06725,16.06175 127.47475,15.90175 127.77975,15.59675 C128.21225,15.16425 128.24475,14.69175 128.24475,13.40175 C128.24475,12.11425 128.21225,11.64175 127.77975,11.20925 M128.14475,15.84925 C127.74475,16.24925 127.20975,16.46925 126.63475,16.46925 C126.06225,16.46925 125.52725,16.24925 125.12725,15.84925 C124.57725,15.29925 124.56975,14.75675 124.56975,13.40175 C124.56975,12.03925 124.57725,11.50425 125.12725,10.95425 C125.52725,10.55675 126.06225,10.33675 126.63475,10.33675 C127.20975,10.33675 127.74475,10.55675 128.14475,10.95425 C128.69225,11.50425 128.70225,12.03925 128.70225,13.40175 C128.70225,14.75675 128.69225,15.29925 128.14475,15.84925" id="Fill-39" fill="#FFFFFF" mask="url(#mask-6)"></path>
                    <polygon id="Fill-40" fill="#FFFFFF" mask="url(#mask-6)" points="130.78525 13.2745 133.51525 13.2745 133.51525 13.682 130.78525 13.682 130.78525 16.417 130.32775 16.417 130.32775 10.387 133.98775 10.387 133.98775 10.7945 130.78525 10.7945"></polygon>
                    <polygon id="Fill-41" fill="#FFFFFF" mask="url(#mask-6)" points="80.6475 24.3075 81.105 24.3075 81.105 18.2775 80.6475 18.2775"></polygon>
                    <polygon id="Fill-42" fill="#FFFFFF" mask="url(#mask-6)" points="83.715 19.06325 83.715 24.30825 83.255 24.30825 83.255 18.27825 83.715 18.27825 87.195 23.50075 87.195 18.27825 87.6525 18.27825 87.6525 24.30825 87.195 24.30825"></polygon>
                    <polygon id="Fill-43" fill="#FFFFFF" mask="url(#mask-6)" points="91.0415 24.30725 90.584 24.30725 90.584 18.68225 88.789 18.68225 88.789 18.27725 92.8465 18.27725 92.8465 18.68225 91.0415 18.68225"></polygon>
                    <polygon id="Fill-44" fill="#FFFFFF" mask="url(#mask-6)" points="93.981 18.277 97.641 18.277 97.641 18.682 94.4385 18.682 94.4385 21.062 97.1635 21.062 97.1635 21.4695 94.4385 21.4695 94.4385 23.8995 97.641 23.8995 97.641 24.307 93.981 24.307"></polygon>
                    <path d="M101.57125,18.68225 L99.79125,18.68225 L99.79125,21.12225 L101.57125,21.12225 C102.35125,21.12225 102.89875,20.73975 102.89875,19.90225 C102.89875,19.06225 102.35125,18.68225 101.57125,18.68225 L101.57125,18.68225 Z M101.45125,21.52975 L99.79125,21.52975 L99.79125,24.30725 L99.33375,24.30725 L99.33375,18.27725 L101.62875,18.27725 C102.61125,18.27725 103.35625,18.84225 103.35625,19.89225 C103.35625,20.80225 102.81375,21.37725 101.96875,21.51975 L103.42375,24.30725 L102.89125,24.30725 L101.45125,21.52975 Z" id="Fill-45" fill="#FFFFFF" mask="url(#mask-6)"></path>
                    <path d="M105.82425,22.43475 L108.34675,22.43475 L107.08675,18.88725 L105.82425,22.43475 Z M108.48925,22.84225 L105.67925,22.84225 L105.15175,24.30725 L104.66175,24.30725 L106.88175,18.27725 L107.28925,18.27725 L109.50925,24.30725 L109.01425,24.30725 L108.48925,22.84225 Z" id="Fill-46" fill="#FFFFFF" mask="url(#mask-6)"></path>
                    <path d="M112.5405,24.3585 C111.9655,24.3585 111.4305,24.136 111.0305,23.7385 C110.483,23.1885 110.473,22.646 110.473,21.291 C110.473,19.9285 110.483,19.396 111.0305,18.8435 C111.4305,18.446 111.9655,18.226 112.5405,18.226 C113.6255,18.226 114.3855,18.901 114.588,19.986 L114.1255,19.986 C113.9455,19.1485 113.353,18.631 112.5405,18.631 C112.108,18.631 111.7005,18.791 111.3955,19.0985 C110.9655,19.5285 110.9305,20.0035 110.9305,21.291 C110.9305,22.5785 110.9655,23.0535 111.3955,23.4835 C111.7005,23.7885 112.108,23.951 112.5405,23.951 C113.353,23.951 113.963,23.436 114.1405,22.596 L114.588,22.596 C114.3855,23.681 113.608,24.3585 112.5405,24.3585" id="Fill-47" fill="#FFFFFF" mask="url(#mask-6)"></path>
                    <polygon id="Fill-48" fill="#FFFFFF" mask="url(#mask-6)" points="117.8605 24.30725 117.403 24.30725 117.403 18.68225 115.608 18.68225 115.608 18.27725 119.6655 18.27725 119.6655 18.68225 117.8605 18.68225"></polygon>
                    <polygon id="Fill-49" fill="#FFFFFF" mask="url(#mask-6)" points="121.1375 24.3075 121.5975 24.3075 121.5975 18.2775 121.1375 18.2775"></polygon>
                    <path d="M126.72025,19.09725 C126.41525,18.79225 126.00775,18.62975 125.57775,18.62975 C125.14275,18.62975 124.73775,18.79225 124.43275,19.09725 C124.00025,19.52975 123.96775,20.00225 123.96775,21.29225 C123.96775,22.57975 124.00025,23.05225 124.43275,23.48475 C124.73775,23.78975 125.14275,23.94975 125.57775,23.94975 C126.00775,23.94975 126.41525,23.78975 126.72025,23.48475 C127.15275,23.05225 127.18775,22.57975 127.18775,21.29225 C127.18775,20.00225 127.15275,19.52975 126.72025,19.09725 M127.08525,23.73725 C126.68525,24.13725 126.15025,24.35725 125.57775,24.35725 C125.00275,24.35725 124.46775,24.13725 124.06775,23.73725 C123.51775,23.18975 123.51025,22.64725 123.51025,21.29225 C123.51025,19.92725 123.51775,19.39475 124.06775,18.84225 C124.46775,18.44475 125.00275,18.22475 125.57775,18.22475 C126.15025,18.22475 126.68525,18.44475 127.08525,18.84225 C127.63275,19.39475 127.64275,19.92725 127.64275,21.29225 C127.64275,22.64725 127.63275,23.18975 127.08525,23.73725" id="Fill-50" fill="#FFFFFF" mask="url(#mask-6)"></path>
                    <polygon id="Fill-51" fill="#FFFFFF" mask="url(#mask-6)" points="130.01625 19.06325 130.01625 24.30825 129.55625 24.30825 129.55625 18.27825 130.01625 18.27825 133.49875 23.50075 133.49875 18.27825 133.95375 18.27825 133.95375 24.30825 133.49875 24.30825"></polygon>
                    <path d="M83.8565,27.03675 C83.509,26.67175 83.044,26.57175 82.5615,26.57175 L81.104,26.57175 L81.104,31.78925 L82.5615,31.78925 C83.044,31.78925 83.509,31.68675 83.8565,31.32425 C84.3315,30.82425 84.3065,29.77425 84.3065,29.09425 C84.3065,28.41925 84.3315,27.53675 83.8565,27.03675 M84.179,31.64675 C83.814,32.00925 83.3065,32.19425 82.6715,32.19425 L80.649,32.19425 L80.649,26.16425 L82.6715,26.16425 C83.3065,26.16425 83.814,26.35175 84.179,26.71675 C84.789,27.32425 84.764,28.28175 84.764,29.09425 C84.764,29.90675 84.789,31.03675 84.179,31.64675" id="Fill-52" fill="#FFFFFF" mask="url(#mask-6)"></path>
                    <polygon id="Fill-53" fill="#FFFFFF" mask="url(#mask-6)" points="86.39075 26.16525 90.05075 26.16525 90.05075 26.57275 86.84825 26.57275 86.84825 28.95025 89.57575 28.95025 89.57575 29.35775 86.84825 29.35775 86.84825 31.79025 90.05075 31.79025 90.05075 32.19525 86.39075 32.19525"></polygon>
                    <path d="M92.963,32.24675 C92.0755,32.24675 91.508,31.99925 90.9555,31.45175 L91.278,31.12925 C91.8205,31.67175 92.2705,31.83925 92.9905,31.83925 C93.948,31.83925 94.5405,31.38175 94.5405,30.59425 C94.5405,30.22925 94.438,29.94175 94.208,29.74675 C93.9805,29.57175 93.838,29.49425 93.3355,29.42675 L92.633,29.31675 C92.178,29.24925 91.8205,29.10425 91.558,28.87425 C91.2455,28.61425 91.083,28.23925 91.083,27.76675 C91.083,26.74925 91.7955,26.11425 92.9555,26.11425 C93.7005,26.11425 94.173,26.31925 94.6905,26.76675 L94.3955,27.06425 C94.0405,26.72425 93.6405,26.50425 92.9305,26.50425 C92.0505,26.50425 91.533,26.97925 91.533,27.74925 C91.533,28.09675 91.6355,28.35925 91.848,28.53675 C92.058,28.71425 92.403,28.85175 92.743,28.90925 L93.3955,29.01175 C93.963,29.08675 94.2255,29.19675 94.473,29.40925 C94.8005,29.68175 94.9955,30.09675 94.9955,30.57925 C94.9955,31.60175 94.2255,32.24675 92.963,32.24675" id="Fill-54" fill="#FFFFFF" mask="url(#mask-6)"></path>
                    <polygon id="Fill-55" fill="#FFFFFF" mask="url(#mask-6)" points="96.5975 32.195 97.0575 32.195 97.0575 26.165 96.5975 26.165"></polygon>
                    <path d="M102.333,31.5535 C101.9355,31.9935 101.358,32.246 100.748,32.246 C100.173,32.246 99.6405,32.026 99.243,31.6285 C98.6905,31.0785 98.683,30.536 98.683,29.181 C98.683,27.8185 98.6905,27.2835 99.243,26.7335 C99.6405,26.3335 100.173,26.1135 100.748,26.1135 C101.8005,26.1135 102.628,26.816 102.8055,27.876 L102.3505,27.876 C102.173,27.036 101.5605,26.521 100.748,26.521 C100.3155,26.521 99.9105,26.6835 99.6055,26.9885 C99.173,27.4185 99.1405,27.8935 99.1405,29.181 C99.1405,30.466 99.173,30.9435 99.6055,31.376 C99.9105,31.6785 100.3155,31.8385 100.748,31.8385 C101.223,31.8385 101.688,31.636 102.003,31.256 C102.2655,30.926 102.368,30.5785 102.368,30.061 L102.368,29.521 L100.748,29.521 L100.748,29.111 L102.823,29.111 L102.823,30.096 C102.823,30.731 102.698,31.171 102.333,31.5535" id="Fill-56" fill="#FFFFFF" mask="url(#mask-6)"></path>
                    <polygon id="Fill-57" fill="#FFFFFF" mask="url(#mask-6)" points="104.89175 26.95375 104.89175 32.19625 104.43425 32.19625 104.43425 26.16625 104.89175 26.16625 108.37425 31.39125 108.37425 26.16625 108.82925 26.16625 108.82925 32.19625 108.37425 32.19625"></polygon>
                </g>
            </g>
        </g>
    </g>
</svg>