<?xml version="1.0" encoding="UTF-8"?>
<svg width="101px" height="37px" viewBox="0 0 101 37" version="1.1" xmlns="http://www.w3.org/2000/svg" xmlns:xlink="http://www.w3.org/1999/xlink">
    <!-- Generator: Sketch 61 (89581) - https://sketch.com -->
    <title>Group 69</title>
    <desc>Created with Sketch.</desc>
    <defs>
        <polygon id="path-1" points="0.000557142857 1.35014286 35.7951286 1.35014286 35.7951286 37.1423 0.000557142857 37.1423"></polygon>
        <polygon id="path-3" points="0 37.6506 100.252286 37.6506 100.252286 1.85788571 0 1.85788571"></polygon>
    </defs>
    <g id="Symbols" stroke="none" stroke-width="1" fill="none" fill-rule="evenodd">
        <g id="Footer" transform="translate(-373.000000, -38.000000)">
            <g id="Group-69" transform="translate(373.000000, 37.000000)">
                <g id="Group-3" transform="translate(0.000000, 0.507743)">
                    <mask id="mask-2" fill="white">
                        <use xlink:href="#path-1"></use>
                    </mask>
                    <g id="Clip-2"></g>
                    <path d="M29.1075571,10.6167286 L25.5102714,10.6167286 L25.5102714,17.6887286 L28.8735571,17.6887286 L28.8735571,20.2608714 L25.5102714,20.2608714 L25.5102714,27.8287286 L29.1075571,27.8287286 L29.1075571,30.2653 L23.1554143,30.2653 L23.1554143,8.21172857 L29.1075571,8.21172857 L29.1075571,10.6167286 Z M20.6278429,25.6614429 C20.1189857,28.8743 17.6527,30.3005857 15.3665571,30.2578714 L14.6274143,30.2578714 L14.6274143,27.8993 L14.6274143,27.8435857 L15.3665571,27.8417286 C16.3341286,27.8361571 17.9739857,27.1620143 18.2154143,25.6373 C18.4494143,24.1571571 18.2767,23.0874429 16.3768429,19.8430143 L16.3508429,19.7854429 C15.0285571,17.6293 13.7749857,15.7461571 14.2429857,12.7895857 C14.7518429,9.57672857 17.2645571,8.16158571 19.5507,8.2043 L20.2879857,8.20244286 L20.2879857,10.5628714 L20.2879857,10.6167286 L19.5507,10.6185857 C18.5812714,10.6241571 16.8968429,11.2871571 16.6535571,12.8155857 C16.4195571,14.2920143 16.5811286,15.2484429 18.4327,18.4520143 L18.4828429,18.5355857 C19.8571286,20.7474429 21.0958429,22.7048714 20.6278429,25.6614429 L20.6278429,25.6614429 Z M12.5752714,30.2653 L6.72527143,30.2653 L6.72527143,8.20987143 L9.08012857,8.20987143 L9.08012857,27.8305857 L12.5752714,27.8305857 L12.5752714,30.2653 Z M0.000557142857,37.1423 L35.7951286,37.1423 L35.7951286,1.34958571 L0.000557142857,1.34958571 L0.000557142857,37.1423 Z" id="Fill-1" fill="#FFFFFF" mask="url(#mask-2)"></path>
                </g>
                <polygon id="Fill-4" fill="#FFFFFF" points="43.3997571 10.8743143 42.4749 10.8743143 42.4749 10.4991714 44.7517571 10.4991714 44.7517571 10.8743143 43.8269 10.8743143 43.8269 13.4724571 43.3997571 13.4724571"></polygon>
                <polygon id="Fill-6" fill="#FFFFFF" points="45.1844714 10.4988 45.6116143 10.4988 45.6116143 11.7430857 47.0323286 11.7430857 47.0323286 10.4988 47.4594714 10.4988 47.4594714 13.4739429 47.0323286 13.4739429 47.0323286 12.1182286 45.6116143 12.1182286 45.6116143 13.4739429 45.1844714 13.4739429"></polygon>
                <polygon id="Fill-8" fill="#FFFFFF" points="48.2485714 10.4988 49.9144286 10.4988 49.9144286 10.8739429 48.6738571 10.8739429 48.6738571 11.7412286 49.8048571 11.7412286 49.8048571 12.1182286 48.6738571 12.1182286 48.6738571 13.0950857 49.9144286 13.0950857 49.9144286 13.4720857 48.2485714 13.4720857"></polygon>
                <polygon id="Fill-10" fill="#FFFFFF" points="52.3680857 8.70145714 53.0533714 8.70145714 53.0533714 12.8726 55.0498 12.8726 55.0498 13.4724571 52.3680857 13.4724571"></polygon>
                <path d="M56.0625,11.4908857 C56.0625,10.6867429 56.4933571,9.93831429 57.3717857,9.9438548 C58.2483571,9.93831429 58.6829286,10.6867429 58.6829286,11.4908857 C58.6829286,12.2801714 58.2873571,13.0397429 57.3717857,13.0397429 C56.4543571,13.0397429 56.0625,12.2801714 56.0625,11.4908857 M55.4645,11.4908857 C55.4645,12.6924571 56.1609286,13.5393143 57.3717857,13.5393143 C58.5845,13.5393143 59.2790714,12.6924571 59.2790714,11.4908857 C59.2790714,10.3190286 58.5770714,9.44431429 57.3717857,9.44431429 C56.1665,9.44431429 55.4645,10.3190286 55.4645,11.4908857" id="Fill-12" fill="#FFFFFF"></path>
                <polygon id="Fill-14" fill="#FFFFFF" points="60.0661286 9.51042857 60.8387 9.51042857 62.5955571 12.6972857 62.6067 12.6972857 62.6067 9.51042857 63.1731286 9.51042857 63.1731286 13.4735714 62.4469857 13.4735714 60.6437 10.2105714 60.6325571 10.2105714 60.6325571 13.4735714 60.0661286 13.4735714"></polygon>
                <path d="M64.6943143,10.0109286 L65.3573143,10.0109286 C66.1726,10.0109286 66.8021714,10.5550714 66.8021714,11.4799286 C66.8021714,12.5032143 66.2654571,12.9749286 65.2904571,12.9749286 L64.6943143,12.9749286 L64.6943143,10.0109286 Z M64.1297429,13.4726429 L65.2941714,13.4726429 C66.5997429,13.4726429 67.4020286,12.7855 67.4020286,11.4557857 C67.4020286,10.2375 66.4678857,9.5095 65.2941714,9.5095 L64.1297429,9.5095 L64.1297429,13.4726429 Z" id="Fill-16" fill="#FFFFFF"></path>
                <path d="M68.6344286,11.4908857 C68.6344286,10.6867429 69.0671429,9.93831429 69.9455714,9.9438548 C70.8202857,9.93831429 71.2548571,10.6867429 71.2548571,11.4908857 C71.2548571,12.2801714 70.8611429,13.0397429 69.9455714,13.0397429 C69.0262857,13.0397429 68.6344286,12.2801714 68.6344286,11.4908857 M68.0364286,11.4908857 C68.0364286,12.6924571 68.7328571,13.5393143 69.9455714,13.5393143 C71.1564286,13.5393143 71.8528571,12.6924571 71.8528571,11.4908857 C71.8528571,10.3190286 71.1508571,9.44431429 69.9455714,9.44431429 C68.7384286,9.44431429 68.0364286,10.3190286 68.0364286,11.4908857" id="Fill-18" fill="#FFFFFF"></path>
                <polygon id="Fill-20" fill="#FFFFFF" points="72.6389857 9.51042857 73.4097 9.51042857 75.1684143 12.6972857 75.1795571 12.6972857 75.1795571 9.51042857 75.7459857 9.51042857 75.7459857 13.4735714 75.0198429 13.4735714 73.2165571 10.2105714 73.2054143 10.2105714 73.2054143 13.4735714 72.6389857 13.4735714"></polygon>
                <path d="M80.5617429,9.4198 C80.2144571,9.28422857 80.0213143,9.22294286 79.6647429,9.22294286 C79.2821714,9.22294286 78.8290286,9.35851429 78.8290286,9.85622857 C78.8290286,10.7736571 80.8811714,10.5600857 80.8811714,12.1312286 C80.8811714,13.1489429 80.0974571,13.5519429 79.1373143,13.5519429 C78.8011714,13.5519429 78.4743143,13.4553714 78.1623143,13.3513714 L78.2291714,12.7180857 C78.4631714,12.8146571 78.8680286,12.9502286 79.2190286,12.9502286 C79.6090286,12.9502286 80.1587429,12.7310857 80.1587429,12.1720857 C80.1587429,11.1060857 78.1066,11.3995143 78.1066,9.91937143 C78.1066,9.07251429 78.7733143,8.62308571 79.6368857,8.62308571 C79.9526,8.62308571 80.3296,8.6788 80.6546,8.79022857 L80.5617429,9.4198 Z" id="Fill-22" fill="#FFFFFF"></path>
                <path d="M84.4229286,10.1650714 C84.1740714,10.0183571 83.8936429,9.94407143 83.6039286,9.94407143 C82.6902143,9.94407143 82.0810714,10.6015 82.0810714,11.4910714 C82.0810714,12.4215 82.7515,13.0399286 83.5760714,13.0399286 C83.8602143,13.0399286 84.2409286,12.9656429 84.4396429,12.8449286 L84.4749286,13.3965 C84.1740714,13.5227857 83.8045,13.5376429 83.5705,13.5376429 C82.3150714,13.5376429 81.4830714,12.7335 81.4830714,11.4743571 C81.4830714,10.2560714 82.3670714,9.4445 83.5760714,9.4445 C83.8825,9.4445 84.1852143,9.49092857 84.4675,9.60978571 L84.4229286,10.1650714 Z" id="Fill-24" fill="#FFFFFF"></path>
                <polygon id="Fill-26" fill="#FFFFFF" points="85.1700571 9.51042857 85.7346286 9.51042857 85.7346286 11.1651429 87.6326286 11.1651429 87.6326286 9.51042857 88.1990571 9.51042857 88.1990571 13.4735714 87.6326286 13.4735714 87.6326286 11.6628571 85.7346286 11.6628571 85.7346286 13.4735714 85.1700571 13.4735714"></polygon>
                <path d="M89.6207,11.4908857 C89.6207,10.6867429 90.0515571,9.93831429 90.9299857,9.9438548 C91.8065571,9.93831429 92.2392714,10.6867429 92.2392714,11.4908857 C92.2392714,12.2801714 91.8474143,13.0397429 90.9299857,13.0397429 C90.0125571,13.0397429 89.6207,12.2801714 89.6207,11.4908857 M89.0208429,11.4908857 C89.0208429,12.6924571 89.7172714,13.5393143 90.9299857,13.5393143 C92.1427,13.5393143 92.8372714,12.6924571 92.8372714,11.4908857 C92.8372714,10.3190286 92.1352714,9.44431429 90.9299857,9.44431429 C89.7228429,9.44431429 89.0208429,10.3190286 89.0208429,11.4908857" id="Fill-28" fill="#FFFFFF"></path>
                <path d="M94.0232429,11.4908857 C94.0232429,10.6867429 94.4559571,9.93831429 95.3343857,9.9438548 C96.2091,9.93831429 96.6436714,10.6867429 96.6436714,11.4908857 C96.6436714,12.2801714 96.2499571,13.0397429 95.3343857,13.0397429 C94.4151,13.0397429 94.0232429,12.2801714 94.0232429,11.4908857 M93.4252429,11.4908857 C93.4252429,12.6924571 94.1198143,13.5393143 95.3325286,13.5393143 C96.5452429,13.5393143 97.2398143,12.6924571 97.2398143,11.4908857 C97.2398143,10.3190286 96.5378143,9.44431429 95.3325286,9.44431429 C94.1253857,9.44431429 93.4252429,10.3190286 93.4252429,11.4908857" id="Fill-30" fill="#FFFFFF"></path>
                <polygon id="Fill-32" fill="#FFFFFF" points="98.0259429 9.51042857 98.5942286 9.51042857 98.5942286 12.9721429 100.2508 12.9721429 100.2508 13.4735714 98.0259429 13.4735714"></polygon>
                <path d="M43.1804286,26.5892714 L43.7598571,26.5892714 C44.1851429,26.5892714 44.8128571,26.8084143 44.8128571,27.4119857 C44.8128571,28.0415571 44.2798571,28.2532714 43.8564286,28.2532714 L43.1804286,28.2532714 L43.1804286,26.5892714 Z M42.4932857,30.7622714 L43.1804286,30.7622714 L43.1804286,28.8549857 L43.849,28.8549857 C44.7107143,28.8549857 45.5334286,28.4817 45.5334286,27.4194143 C45.5334286,26.3311286 44.7237143,25.9931286 43.7468571,25.9931286 L42.4932857,25.9931286 L42.4932857,30.7622714 Z" id="Fill-34" fill="#FFFFFF"></path>
                <path d="M46.6399143,28.7818143 C46.6399143,27.9758143 47.0726286,27.2273857 47.9510571,27.2329262 C48.8257714,27.2273857 49.2584857,27.9758143 49.2584857,28.7818143 C49.2584857,29.5692429 48.8666286,30.3288143 47.9510571,30.3288143 C47.0317714,30.3288143 46.6399143,29.5692429 46.6399143,28.7818143 M46.0419143,28.7818143 C46.0419143,29.9815286 46.7364857,30.8283857 47.9492,30.8283857 C49.1619143,30.8283857 49.8583429,29.9815286 49.8583429,28.7818143 C49.8583429,27.6062429 49.1563429,26.7333857 47.9492,26.7333857 C46.7420571,26.7333857 46.0419143,27.6062429 46.0419143,28.7818143" id="Fill-36" fill="#FFFFFF"></path>
                <polygon id="Fill-38" fill="#FFFFFF" points="50.6725143 26.8013571 51.2389429 26.8013571 51.2389429 30.2630714 52.8973714 30.2630714 52.8973714 30.7626429 50.6725143 30.7626429"></polygon>
                <mask id="mask-4" fill="white">
                    <use xlink:href="#path-3"></use>
                </mask>
                <g id="Clip-41"></g>
                <polygon id="Fill-40" fill="#FFFFFF" mask="url(#mask-4)" points="53.5358571 30.7624571 54.1022857 30.7624571 54.1022857 26.8011714 53.5358571 26.8011714"></polygon>
                <polygon id="Fill-42" fill="#FFFFFF" mask="url(#mask-4)" points="55.9137429 27.3001857 54.6806 27.3001857 54.6806 26.8006143 57.7133143 26.8006143 57.7133143 27.3001857 56.4801714 27.3001857 56.4801714 30.7619 55.9137429 30.7619"></polygon>
                <polygon id="Fill-43" fill="#FFFFFF" mask="url(#mask-4)" points="58.2975714 30.7624571 58.864 30.7624571 58.864 26.8011714 58.2975714 26.8011714"></polygon>
                <path d="M62.6159857,27.4543286 C62.3671286,27.3076143 62.0885571,27.2333286 61.7969857,27.2333286 C60.8814143,27.2333286 60.2741286,27.8907571 60.2741286,28.7821857 C60.2741286,29.7107571 60.9445571,30.3291857 61.7691286,30.3291857 C62.0532714,30.3291857 62.4339857,30.2549 62.6327,30.1360429 L62.6679857,30.6857571 C62.3671286,30.8120429 61.9975571,30.8287571 61.7654143,30.8287571 C60.5099857,30.8287571 59.6761286,30.0246143 59.6761286,28.7636143 C59.6761286,27.5453286 60.5601286,26.7337571 61.7691286,26.7337571 C62.0755571,26.7337571 62.3782714,26.7801857 62.6605571,26.9009 L62.6159857,27.4543286 Z" id="Fill-44" fill="#FFFFFF" mask="url(#mask-4)"></path>
                <path d="M65.6838,29.2969857 L64.1052286,29.2969857 L64.8982286,27.3321286 L65.6838,29.2969857 Z M62.9259429,30.7622714 L63.5220857,30.7622714 L63.9232286,29.7631286 L65.8658,29.7631286 L66.2669429,30.7622714 L66.8872286,30.7622714 L65.2139429,26.8009857 L64.6178,26.8009857 L62.9259429,30.7622714 Z" id="Fill-45" fill="#FFFFFF" mask="url(#mask-4)"></path>
                <polygon id="Fill-46" fill="#FFFFFF" mask="url(#mask-4)" points="67.4711143 26.8013571 68.0375429 26.8013571 68.0375429 30.2630714 69.6959714 30.2630714 69.6959714 30.7626429 67.4711143 30.7626429"></polygon>
                <path d="M74.1904429,26.7088714 C73.8431571,26.5751571 73.6518714,26.5120143 73.2953,26.5120143 C72.9108714,26.5120143 72.4558714,26.6475857 72.4558714,27.1453 C72.4558714,28.0627286 74.5098714,27.8510143 74.5098714,29.4221571 C74.5098714,30.4380143 73.7261571,30.8410143 72.7660143,30.8410143 C72.4298714,30.8410143 72.1030143,30.7444429 71.7910143,30.6423 L71.8578714,30.0071571 C72.0900143,30.1037286 72.4967286,30.2393 72.8477286,30.2393 C73.2395857,30.2393 73.7893,30.0220143 73.7893,29.4611571 C73.7893,28.3970143 71.7353,28.6885857 71.7353,27.2084429 C71.7353,26.3634429 72.4020143,25.9121571 73.2674429,25.9121571 C73.5813,25.9121571 73.9601571,25.9678714 74.2851571,26.0793 L74.1904429,26.7088714 Z" id="Fill-47" fill="#FFFFFF" mask="url(#mask-4)"></path>
                <path d="M78.0852429,27.4543286 C77.8345286,27.3076143 77.5559571,27.2333286 77.2681,27.2333286 C76.3525286,27.2333286 75.7452429,27.8907571 75.7452429,28.7821857 C75.7452429,29.7107571 76.4156714,30.3291857 77.2383857,30.3291857 C77.5243857,30.3291857 77.9032429,30.2549 78.1019571,30.1360429 L78.1372429,30.6857571 C77.8345286,30.8120429 77.4668143,30.8287571 77.2346714,30.8287571 C75.9792429,30.8287571 75.1453857,30.0246143 75.1453857,28.7636143 C75.1453857,27.5453286 76.0293857,26.7337571 77.2383857,26.7337571 C77.5448143,26.7337571 77.8475286,26.7801857 78.1298143,26.9009 L78.0852429,27.4543286 Z" id="Fill-48" fill="#FFFFFF" mask="url(#mask-4)"></path>
                <polygon id="Fill-49" fill="#FFFFFF" mask="url(#mask-4)" points="78.8394286 30.7624571 79.404 30.7624571 79.404 26.8011714 78.8394286 26.8011714"></polygon>
                <polygon id="Fill-50" fill="#FFFFFF" mask="url(#mask-4)" points="80.4519857 26.8013571 82.6712714 26.8013571 82.6712714 27.3009286 81.0184143 27.3009286 81.0184143 28.4542143 82.5227 28.4542143 82.5227 28.9537857 81.0184143 28.9537857 81.0184143 30.2630714 82.6712714 30.2630714 82.6712714 30.7626429 80.4519857 30.7626429"></polygon>
                <polygon id="Fill-51" fill="#FFFFFF" mask="url(#mask-4)" points="83.5877714 26.8013571 84.3603429 26.8013571 86.1190571 29.9863571 86.1302 29.9863571 86.1302 26.8013571 86.6947714 26.8013571 86.6947714 30.7626429 85.9704857 30.7626429 84.1672 27.4996429 84.1542 27.4996429 84.1542 30.7626429 83.5877714 30.7626429"></polygon>
                <path d="M90.4413714,27.4543286 C90.1906571,27.3076143 89.9120857,27.2333286 89.6242286,27.2333286 C88.7086571,27.2333286 88.1013714,27.8907571 88.1013714,28.7821857 C88.1013714,29.7107571 88.7718,30.3291857 89.5945143,30.3291857 C89.8786571,30.3291857 90.2593714,30.2549 90.4580857,30.1360429 L90.4915143,30.6857571 C90.1906571,30.8120429 89.8229429,30.8287571 89.5908,30.8287571 C88.3335143,30.8287571 87.5015143,30.0246143 87.5015143,28.7636143 C87.5015143,27.5453286 88.3855143,26.7337571 89.5945143,26.7337571 C89.9009429,26.7337571 90.2036571,26.7801857 90.4878,26.9009 L90.4413714,27.4543286 Z" id="Fill-52" fill="#FFFFFF" mask="url(#mask-4)"></path>
                <polygon id="Fill-53" fill="#FFFFFF" mask="url(#mask-4)" points="91.2176571 26.8013571 93.4369429 26.8013571 93.4369429 27.3009286 91.7822286 27.3009286 91.7822286 28.4542143 93.2883714 28.4542143 93.2883714 28.9537857 91.7822286 28.9537857 91.7822286 30.2630714 93.4369429 30.2630714 93.4369429 30.7626429 91.2176571 30.7626429"></polygon>
                <path d="M42.9347286,20.6152143 C42.9347286,20.0135 43.2597286,19.4507857 43.9171571,19.4563571 C44.5745857,19.4507857 44.8977286,20.0135 44.8977286,20.6152143 C44.8977286,21.2057857 44.6024429,21.7759286 43.9171571,21.7759286 C43.2300143,21.7759286 42.9347286,21.2057857 42.9347286,20.6152143 M42.4853,20.6152143 C42.4853,21.5140714 43.0071571,22.1510714 43.9171571,22.1510714 C44.8271571,22.1510714 45.3490143,21.5140714 45.3490143,20.6152143 C45.3490143,19.7349286 44.8215857,19.0793571 43.9171571,19.0793571 C43.0127286,19.0793571 42.4853,19.7349286 42.4853,20.6152143" id="Fill-54" fill="#FFFFFF" mask="url(#mask-4)"></path>
                <polygon id="Fill-55" fill="#FFFFFF" mask="url(#mask-4)" points="46.2943 19.1298714 47.8747286 19.1298714 47.8747286 19.5050143 46.7195857 19.5050143 46.7195857 20.3723 47.8245857 20.3723 47.8245857 20.7474429 46.7195857 20.7474429 46.7195857 22.1031571 46.2943 22.1031571"></polygon>
                <polygon id="Fill-56" fill="#FFFFFF" mask="url(#mask-4)" points="51.1475714 17.3306714 53.8237143 17.3306714 53.8237143 17.9286714 51.8347143 17.9286714 51.8347143 19.3289571 53.6454286 19.3289571 53.6454286 19.9269571 51.8347143 19.9269571 51.8347143 21.5036714 53.8237143 21.5036714 53.8237143 22.1016714 51.1475714 22.1016714"></polygon>
                <path d="M58.1319143,18.7942857 C57.8812,18.6475714 57.6026286,18.5732857 57.3129143,18.5732857 C56.3973429,18.5732857 55.7919143,19.2307143 55.7919143,20.1221429 C55.7919143,21.0525714 56.4623429,21.6691429 57.2850571,21.6691429 C57.5692,21.6691429 57.9499143,21.5948571 58.1486286,21.476 L58.1820571,22.0275714 C57.8812,22.152 57.5116286,22.1687143 57.2794857,22.1687143 C56.0259143,22.1687143 55.1920571,21.3645714 55.1920571,20.1054286 C55.1920571,18.8852857 56.0760571,18.0737143 57.2850571,18.0737143 C57.5914857,18.0737143 57.8942,18.1201429 58.1764857,18.2408571 L58.1319143,18.7942857 Z" id="Fill-57" fill="#FFFFFF" mask="url(#mask-4)"></path>
                <path d="M59.7504143,20.1219571 C59.7504143,19.3159571 60.1831286,18.5675286 61.0615571,18.5730691 C61.9381286,18.5675286 62.3689857,19.3159571 62.3689857,20.1219571 C62.3689857,20.9093857 61.9771286,21.6689571 61.0615571,21.6689571 C60.1422714,21.6689571 59.7504143,20.9093857 59.7504143,20.1219571 M59.1524143,20.1219571 C59.1524143,21.3216714 59.8469857,22.1685286 61.0597,22.1685286 C62.2724143,22.1685286 62.9669857,21.3216714 62.9669857,20.1219571 C62.9669857,18.9482429 62.2649857,18.0735286 61.0597,18.0735286 C59.8544143,18.0735286 59.1524143,18.9482429 59.1524143,20.1219571" id="Fill-58" fill="#FFFFFF" mask="url(#mask-4)"></path>
                <polygon id="Fill-59" fill="#FFFFFF" mask="url(#mask-4)" points="64.2591857 18.1415 65.0317571 18.1415 66.7886143 21.3265 66.7997571 21.3265 66.7997571 18.1415 67.3661857 18.1415 67.3661857 22.1027857 66.6400429 22.1027857 64.8386143 18.8397857 64.8256143 18.8397857 64.8256143 22.1027857 64.2591857 22.1027857"></polygon>
                <path d="M69.2502571,20.1219571 C69.2502571,19.3159571 69.6811143,18.5675286 70.5595429,18.5730691 C71.4361143,18.5675286 71.8688286,19.3159571 71.8688286,20.1219571 C71.8688286,20.9093857 71.4751143,21.6689571 70.5595429,21.6689571 C69.6421143,21.6689571 69.2502571,20.9093857 69.2502571,20.1219571 M68.6504,20.1219571 C68.6504,21.3216714 69.3449714,22.1685286 70.5595429,22.1685286 C71.7722571,22.1685286 72.4668286,21.3216714 72.4668286,20.1219571 C72.4668286,18.9482429 71.7648286,18.0735286 70.5595429,18.0735286 C69.3524,18.0735286 68.6504,18.9482429 68.6504,20.1219571" id="Fill-60" fill="#FFFFFF" mask="url(#mask-4)"></path>
                <polygon id="Fill-61" fill="#FFFFFF" mask="url(#mask-4)" points="73.7688714 18.1415 74.7048714 18.1415 75.9491571 21.4360714 77.1730143 18.1415 78.1090143 18.1415 78.1090143 22.1027857 77.5425857 22.1027857 77.5425857 18.6726429 77.5295857 18.6726429 76.2165857 22.1027857 75.6613 22.1027857 74.3483 18.6726429 74.3353 18.6726429 74.3353 22.1027857 73.7688714 22.1027857"></polygon>
                <polygon id="Fill-62" fill="#FFFFFF" mask="url(#mask-4)" points="79.6212857 22.1026 80.1877143 22.1026 80.1877143 18.1413143 79.6212857 18.1413143"></polygon>
                <path d="M84.4175429,18.7942857 C84.1686857,18.6475714 83.8882571,18.5732857 83.6004,18.5732857 C82.6848286,18.5732857 82.0775429,19.2307143 82.0775429,20.1221429 C82.0775429,21.0525714 82.7479714,21.6691429 83.5706857,21.6691429 C83.8548286,21.6691429 84.2355429,21.5948571 84.4342571,21.476 L84.4695429,22.0275714 C84.1686857,22.152 83.7991143,22.1687143 83.5669714,22.1687143 C82.3115429,22.1687143 81.4776857,21.3645714 81.4776857,20.1054286 C81.4776857,18.8852857 82.3616857,18.0737143 83.5706857,18.0737143 C83.8771143,18.0737143 84.1798286,18.1201429 84.4639714,18.2408571 L84.4175429,18.7942857 Z" id="Fill-63" fill="#FFFFFF" mask="url(#mask-4)"></path>
                <path d="M87.4480286,18.7380143 C87.1583143,18.6247286 86.9986,18.5727286 86.7014571,18.5727286 C86.3820286,18.5727286 86.0050286,18.6878714 86.0050286,19.1020143 C86.0050286,19.8597286 87.7136,19.6851571 87.7136,20.9888714 C87.7136,21.8320143 87.0617429,22.1681571 86.2613143,22.1681571 C85.9808857,22.1681571 85.7116,22.0901571 85.4497429,22.0028714 L85.5073143,21.4773 C85.6986,21.5553 86.0384571,21.6685857 86.3300286,21.6685857 C86.6568857,21.6685857 87.1137429,21.4865857 87.1137429,21.0204429 C87.1137429,20.1383 85.4051714,20.3815857 85.4051714,19.1521571 C85.4051714,18.4483 85.9604571,18.0731571 86.6791714,18.0731571 C86.9447429,18.0731571 87.2548857,18.1195857 87.5260286,18.2161571 L87.4480286,18.7380143 Z" id="Fill-64" fill="#FFFFFF" mask="url(#mask-4)"></path>
                <path d="M92.6558286,21.0033571 L91.4709714,21.0033571 L92.0652571,19.5287857 L92.6558286,21.0033571 Z M90.5851143,22.1027857 L91.0326857,22.1027857 L91.3354,21.3525 L92.7932571,21.3525 L93.0959714,22.1027857 L93.5602571,22.1027857 L92.3029714,19.1276429 L91.8554,19.1276429 L90.5851143,22.1027857 Z" id="Fill-65" fill="#FFFFFF" mask="url(#mask-4)"></path>
                <polygon id="Fill-66" fill="#FFFFFF" mask="url(#mask-4)" points="94.3506571 19.1280143 94.9300857 19.1280143 96.2449429 21.5255857 96.2523714 21.5255857 96.2523714 19.1280143 96.6795143 19.1280143 96.6795143 22.1031571 96.1335143 22.1031571 94.7852286 19.6554429 94.7759429 19.6554429 94.7759429 22.1031571 94.3506571 22.1031571"></polygon>
                <path d="M98.2027429,19.5052 L98.7004571,19.5052 C99.3133143,19.5052 99.7831714,19.9137714 99.7831714,20.6083429 C99.7831714,21.3734857 99.3801714,21.7244857 98.6484571,21.7244857 L98.2027429,21.7244857 L98.2027429,19.5052 Z M97.7774571,22.1014857 L98.6540286,22.1014857 C99.6308857,22.1014857 100.2326,21.5852 100.2326,20.5897714 C100.2326,19.6760571 99.5324571,19.1300571 98.6540286,19.1300571 L97.7774571,19.1300571 L97.7774571,22.1014857 Z" id="Fill-67" fill="#FFFFFF" mask="url(#mask-4)"></path>
                <polygon id="Fill-68" fill="#FFFFFF" mask="url(#mask-4)" points="96.2612857 30.7568857 100.233714 30.7568857 100.233714 26.7844571 96.2612857 26.7844571"></polygon>
            </g>
        </g>
    </g>
</svg>