<svg id="Layer_1" data-name="Layer 1" xmlns="http://www.w3.org/2000/svg" viewBox="0 0 55.34 22"><defs><style>.cls-1{fill:#fff;}.cls-2{fill:#d0cfce;}</style></defs><title>ORG</title><path class="cls-1" d="M37,7a1.23,1.23,0,0,1-.92.37A1.25,1.25,0,0,1,35.13,7c-.35-.35-.34-.78-.34-1.37s0-1,.34-1.37a1.25,1.25,0,0,1,.93-.37,1.23,1.23,0,0,1,.92.37c.35.35.34.78.34,1.37S37.33,6.62,37,7Zm-.49-2.33a.58.58,0,0,0-.43-.19.58.58,0,0,0-.44.19c-.13.14-.16.3-.16,1s0,.82.16,1a.58.58,0,0,0,.44.18.57.57,0,0,0,.43-.18c.13-.14.16-.3.16-1S36.62,4.78,36.49,4.64Z"/><path class="cls-1" d="M39.33,6h-.65V7.31H38V3.89h1.32a1.07,1.07,0,1,1,0,2.13Zm0-1.54h-.62v.94h.62A.46.46,0,0,0,39.8,5,.47.47,0,0,0,39.3,4.48Z"/><path class="cls-1" d="M41,7.31V3.89h2.26v.59H41.7v.81h1.35v.59H41.7v.84h1.59v.59Z"/><path class="cls-1" d="M46,7.31l-1.36-2.1v2.1h-.67V3.89h.6L45.89,6V3.89h.67V7.31Z"/><path class="cls-1" d="M36.73,12.54l-.67-1.36h-.48v1.36h-.67V9.12h1.34a1,1,0,0,1,1.11,1.05.93.93,0,0,1-.62.9l.76,1.47Zm-.52-2.83h-.63v.91h.63a.46.46,0,1,0,0-.91Z"/><path class="cls-1" d="M38.05,12.54V9.12h.67v3.42Z"/><path class="cls-1" d="M41.63,12.18a1.37,1.37,0,0,1-1.89,0,1,1,0,0,1-.28-.52,5.83,5.83,0,0,1-.05-.85,5.73,5.73,0,0,1,.05-.85,1,1,0,0,1,.28-.52,1.26,1.26,0,0,1,.93-.37A1.23,1.23,0,0,1,42,10.18h-.68a.58.58,0,0,0-.61-.5.54.54,0,0,0-.43.19c-.13.16-.16.28-.16,1s0,.81.16,1a.52.52,0,0,0,.43.17.61.61,0,0,0,.47-.19.67.67,0,0,0,.16-.46V11.2h-.63v-.56H42v.5A1.35,1.35,0,0,1,41.63,12.18Z"/><path class="cls-1" d="M44.42,12.54V11.11H43.26v1.43h-.67V9.12h.67v1.4h1.16V9.12h.67v3.42Z"/><path class="cls-1" d="M47.19,9.71v2.83h-.67V9.71h-.89V9.12h2.46v.59Z"/><path class="cls-1" d="M49.58,12.57a1.64,1.64,0,0,1-1.26-.45l.44-.43a1.13,1.13,0,0,0,.82.28c.4,0,.61-.14.61-.42a.39.39,0,0,0-.1-.29.6.6,0,0,0-.31-.12l-.41-.06a1.15,1.15,0,0,1-.67-.28.9.9,0,0,1-.24-.67,1.05,1.05,0,0,1,1.19-1,1.45,1.45,0,0,1,1.11.4l-.42.42a1,1,0,0,0-.71-.24c-.35,0-.53.2-.53.43a.35.35,0,0,0,.1.25.63.63,0,0,0,.32.13l.41.06a1.06,1.06,0,0,1,.65.27,1,1,0,0,1,.27.72C50.85,12.2,50.29,12.57,49.58,12.57Z"/><path class="cls-1" d="M37,17.41a1.29,1.29,0,0,1-1,.39,1.25,1.25,0,0,1-.92-.37,1,1,0,0,1-.28-.52,4.5,4.5,0,0,1-.06-.85,4.43,4.43,0,0,1,.06-.85,1,1,0,0,1,.28-.52,1.25,1.25,0,0,1,.92-.37,1.23,1.23,0,0,1,1.29,1.09h-.67a.59.59,0,0,0-.62-.5.56.56,0,0,0-.43.19c-.12.16-.16.28-.16,1s0,.81.16,1a.53.53,0,0,0,.43.17.62.62,0,0,0,.48-.19.67.67,0,0,0,.15-.46v-.13h-.63v-.55h1.3v.5A1.35,1.35,0,0,1,37,17.41Z"/><path class="cls-1" d="M39.79,17.77l-.67-1.36h-.48v1.36H38V14.35h1.34a1,1,0,0,1,1.12,1,.92.92,0,0,1-.63.9l.77,1.48Zm-.52-2.83h-.63v.91h.63a.46.46,0,1,0,0-.91Z"/><path class="cls-1" d="M43.19,17.43a1.23,1.23,0,0,1-.92.37,1.25,1.25,0,0,1-.93-.37c-.35-.35-.34-.78-.34-1.37s0-1,.34-1.37a1.25,1.25,0,0,1,.93-.37,1.23,1.23,0,0,1,.92.37,1.74,1.74,0,0,1,.35,1.37A1.74,1.74,0,0,1,43.19,17.43ZM42.7,15.1a.58.58,0,0,0-.43-.19.56.56,0,0,0-.43.19c-.13.14-.17.3-.17,1s0,.82.17,1a.56.56,0,0,0,.43.18A.57.57,0,0,0,42.7,17c.13-.14.17-.3.17-1S42.83,15.24,42.7,15.1Z"/><path class="cls-1" d="M45.43,17.8a1.19,1.19,0,0,1-1.26-1.2V14.35h.67v2.22a.59.59,0,1,0,1.18,0V14.35h.67V16.6A1.19,1.19,0,0,1,45.43,17.8Z"/><path class="cls-1" d="M48.76,16.48H48.1v1.29h-.67V14.35h1.33a1.07,1.07,0,1,1,0,2.13Zm0-1.54H48.1v.94h.63a.47.47,0,1,0,0-.94Z"/><path class="cls-1" d="M16,12.31a3.55,3.55,0,0,0-.57-1.17,2.34,2.34,0,0,0-.86-.68l-.12,0V4.52H11.06V6.19h1.68v4.15l-.36.12a2.31,2.31,0,0,0-.85.68A3.55,3.55,0,0,0,11,12.31a6.24,6.24,0,0,0-.2,1.66,6.24,6.24,0,0,0,.2,1.66,3.49,3.49,0,0,0,.57,1.16,2.24,2.24,0,0,0,.85.69,2.76,2.76,0,0,0,2.16,0,2.27,2.27,0,0,0,.86-.69A3.49,3.49,0,0,0,16,15.63,5.83,5.83,0,0,0,16.18,14,5.83,5.83,0,0,0,16,12.31Zm-1.61,2.76a2.27,2.27,0,0,1-.23.67.77.77,0,0,1-.31.33.76.76,0,0,1-.72,0,.83.83,0,0,1-.31-.33,2.3,2.3,0,0,1-.21-.67,5.53,5.53,0,0,1-.09-1.1,5.53,5.53,0,0,1,.09-1.1,2.21,2.21,0,0,1,.21-.67.83.83,0,0,1,.31-.33.77.77,0,0,1,.72,0,.77.77,0,0,1,.31.33,2.17,2.17,0,0,1,.23.67,6.53,6.53,0,0,1,.08,1.1A6.53,6.53,0,0,1,14.36,15.07Z"/><path class="cls-2" d="M9.36,6.59a3.59,3.59,0,0,0-.57-1.16,2.24,2.24,0,0,0-.86-.68,2.66,2.66,0,0,0-1.09-.23,2.57,2.57,0,0,0-1.07.23,2.24,2.24,0,0,0-.86.68,3.58,3.58,0,0,0-.56,1.16,5.9,5.9,0,0,0-.2,1.66,5.8,5.8,0,0,0,.2,1.66,3.31,3.31,0,0,0,.37.85V12H6.4V17.2H8.08V11.67a2.49,2.49,0,0,0,.71-.59,3.55,3.55,0,0,0,.57-1.17,6.18,6.18,0,0,0,.2-1.66A6.29,6.29,0,0,0,9.36,6.59ZM6,7.16a2.38,2.38,0,0,1,.22-.67.8.8,0,0,1,.31-.34.77.77,0,0,1,.36-.09.73.73,0,0,1,.35.09.82.82,0,0,1,.32.34,2.1,2.1,0,0,1,.22.67,5.42,5.42,0,0,1,.09,1.09,5.46,5.46,0,0,1-.09,1.1,2.1,2.1,0,0,1-.22.67.91.91,0,0,1-.25.29H6.42A.89.89,0,0,1,6.18,10,2.38,2.38,0,0,1,6,9.35a6.45,6.45,0,0,1-.08-1.1A6.4,6.4,0,0,1,6,7.16Z"/><path class="cls-2" d="M29.18,12.31a3.55,3.55,0,0,0-.57-1.17,2.37,2.37,0,0,0-.87-.68l-.11,0V4.52H24.27V6.19h1.67v4.15a3.59,3.59,0,0,0-.35.12,2.34,2.34,0,0,0-.86.68,3.35,3.35,0,0,0-.56,1.17A5.85,5.85,0,0,0,24,14a5.85,5.85,0,0,0,.2,1.66,3.3,3.3,0,0,0,.56,1.16,2.27,2.27,0,0,0,.86.69,2.74,2.74,0,0,0,2.15,0,2.3,2.3,0,0,0,.87-.69,3.49,3.49,0,0,0,.57-1.16,6.24,6.24,0,0,0,.2-1.66A6.24,6.24,0,0,0,29.18,12.31Zm-1.62,2.76a2.28,2.28,0,0,1-.22.67.78.78,0,0,1-.32.33.74.74,0,0,1-.36.09.73.73,0,0,1-.35-.09.77.77,0,0,1-.31-.33,2.62,2.62,0,0,1-.22-.67A6.53,6.53,0,0,1,25.7,14a6.53,6.53,0,0,1,.08-1.1A2.5,2.5,0,0,1,26,12.2a.77.77,0,0,1,.31-.33.73.73,0,0,1,.35-.09.74.74,0,0,1,.36.09.78.78,0,0,1,.32.33,2.19,2.19,0,0,1,.22.67,5.53,5.53,0,0,1,.09,1.1A5.53,5.53,0,0,1,27.56,15.07Z"/><path class="cls-2" d="M22.56,6.59A3.23,3.23,0,0,0,22,5.43a2.24,2.24,0,0,0-.86-.68,2.65,2.65,0,0,0-2.16,0,2.21,2.21,0,0,0-.85.68,3.39,3.39,0,0,0-.56,1.16,5.88,5.88,0,0,0-.21,1.66,5.78,5.78,0,0,0,.21,1.66,3.68,3.68,0,0,0,.36.85V12H19.6V17.2h1.69V11.67a2.45,2.45,0,0,0,.7-.59,3.2,3.2,0,0,0,.57-1.17,5.78,5.78,0,0,0,.21-1.66A5.88,5.88,0,0,0,22.56,6.59Zm-3.39.57a2.12,2.12,0,0,1,.21-.67.87.87,0,0,1,.31-.34.77.77,0,0,1,.72,0,.88.88,0,0,1,.32.34,2.38,2.38,0,0,1,.22.67A5.52,5.52,0,0,1,21,8.25,5.56,5.56,0,0,1,21,9.35a2.38,2.38,0,0,1-.22.67,1,1,0,0,1-.25.29h-.85a1,1,0,0,1-.25-.29,2.12,2.12,0,0,1-.21-.67,5.56,5.56,0,0,1-.08-1.1A5.52,5.52,0,0,1,19.17,7.16Z"/><rect class="cls-1" x="32.09" y="0.67" width="0.52" height="20.67"/></svg>