<?xml version="1.0" encoding="UTF-8"?>
<svg width="86px" height="86px" viewBox="0 0 86 86" version="1.1" xmlns="http://www.w3.org/2000/svg" xmlns:xlink="http://www.w3.org/1999/xlink">
    <!-- Generator: Sketch 61 (89581) - https://sketch.com -->
    <title>Group 6</title>
    <desc>Created with Sketch.</desc>
    <g id="Main" stroke="none" stroke-width="1" fill="none" fill-rule="evenodd">
        <g id="Resources" transform="translate(-373.000000, -508.000000)">
            <g id="Group-6" transform="translate(374.000000, 509.000000)">
                <circle id="Oval-Copy-4" stroke="#979797" fill="#FFFFFF" cx="42" cy="42" r="42"></circle>
                <path d="M41.5,13 L29,24.9992404 L41.5,37 L54,24.9992404 L41.5,13 Z M34,25.499223 L41,18 L41,33 L34,25.499223 Z M46,42.0007596 L57.9992404,54 L70,42.0007596 L57.9992404,30 L46,42.0007596 Z M14,42.0007596 L26.4992087,54 L39,42.0007596 L26.4992087,30 L14,42.0007596 Z M29,58 L41.5,70 L54,58 L41.5,46 L29,58 Z M34,57.5007768 L41.4992232,50 L49,57.5007768 L41.4992232,65 L34,57.5007768 Z" id="Fill-1" fill="#C8C8C8"></path>
            </g>
        </g>
    </g>
</svg>