<?xml version="1.0" encoding="UTF-8"?>
<svg width="124px" height="27px" viewBox="0 0 124 27" version="1.1" xmlns="http://www.w3.org/2000/svg" xmlns:xlink="http://www.w3.org/1999/xlink">
    <!-- Generator: Sketch 61 (89581) - https://sketch.com -->
    <title>Group 3</title>
    <desc>Created with Sketch.</desc>
    <defs>
        <polygon id="path-1" points="0 0 124 0 124 27 0 27"></polygon>
    </defs>
    <g id="Symbols" stroke="none" stroke-width="1" fill="none" fill-rule="evenodd">
        <g id="Footer" transform="translate(-32.000000, -39.000000)">
            <g id="Group-3" transform="translate(32.000000, 39.000000)">
                <mask id="mask-2" fill="white">
                    <use xlink:href="#path-1"></use>
                </mask>
                <g id="Clip-2"></g>
                <path d="M98.3274607,15.8302868 C98.2245713,15.3302611 98.0611587,14.8501622 97.838154,14.3955512 C97.4903785,13.6874517 97.0257466,13.066011 96.4568287,12.5483755 C95.8860485,12.0284228 95.2184312,11.6122754 94.4725993,11.3115185 C92.9879189,10.7141754 91.1624465,10.7229803 89.7019754,11.3119819 C88.9598681,11.6104217 88.3010965,12.0270326 87.7438176,12.5497657 C87.1832797,13.0752793 86.7256313,13.6985737 86.3834425,14.4025024 C86.1636968,14.8538695 86.0021465,15.3316513 85.9011193,15.8302868 L98.3274607,15.8302868 Z M100.916456,13.4858658 C101.426713,14.6444055 101.686032,15.8933114 101.686032,17.1973637 C101.686032,17.6181453 101.538449,18 101.260507,18.2993667 C100.966737,18.6168065 100.568215,18.7850265 100.10917,18.7850265 L85.972816,18.7850265 C86.0784988,19.2609546 86.2400491,19.719273 86.4546737,20.1539571 C86.7982592,20.8472272 87.2526486,21.4589362 87.8043408,21.9710108 C88.3574296,22.4830853 89.0073555,22.8913547 89.7368927,23.1842336 C90.8635551,23.6356006 92.1769082,23.7500644 93.4492919,23.4747953 C93.9027502,23.3765512 94.340845,23.231502 94.7519371,23.0428917 C95.1639603,22.8542814 95.553171,22.6235003 95.9079299,22.3584264 C96.2496532,22.1007672 96.5499413,21.807425 96.7971552,21.4885948 L96.9275129,21.3555945 C97.2706328,21.0793986 97.6388931,20.9389836 98.022517,20.9389836 C98.1146985,20.9389836 98.1980342,20.9477885 98.2748521,20.9621544 C98.3432899,20.9760568 98.4066064,20.9936666 98.4764409,21.0159106 L98.5234627,21.0335204 C98.7757979,21.1336182 99.0020615,21.31157 99.1971324,21.5618145 C99.427586,21.8292055 99.556547,22.159621 99.5793596,22.5442562 C99.597051,22.8575254 99.5220953,23.31399 99.0774827,23.74404 C98.2795077,24.6249936 97.2939109,25.360898 96.1472293,25.9322898 C94.969355,26.5180475 93.6005998,26.8155605 92.0782089,26.8155605 C90.7541478,26.8155605 89.4947999,26.5616086 88.3341514,26.0611194 C87.1828142,25.5643376 86.1581101,24.8743113 85.2893695,24.0095773 C84.4201635,23.1443798 83.7264746,22.1206941 83.2273911,20.9677154 C82.7250487,19.8082488 82.4703857,18.5519283 82.4703857,17.2339735 C82.4703857,15.9164822 82.7255142,14.6624788 83.2283222,13.5081098 C83.7278713,12.3616189 84.4210946,11.3416405 85.2893695,10.4773699 C86.1576445,9.61309922 87.1823486,8.92307296 88.3341514,8.42582771 C89.4943344,7.92487514 90.7541478,7.67138664 92.0782089,7.67138664 C93.4013389,7.67138664 94.6606867,7.92487514 95.8213352,8.42582771 C96.9740692,8.92353638 97.9955143,9.61031873 98.8572714,10.468565 C99.7162351,11.3240307 100.409458,12.3393749 100.916456,13.4858658 L100.916456,13.4858658 Z M27.1973523,0 C25.8029912,0 24.6716732,1.1256372 24.6716732,2.51449462 C24.6716732,3.90288863 25.8029912,5.02806241 27.1973523,5.02806241 C28.592179,5.02806241 29.7234971,3.90288863 29.7234971,2.51449462 C29.7234971,1.1256372 28.592179,0 27.1973523,0 L27.1973523,0 Z M74.3998515,12.5557901 C72.522236,12.5557901 70.9993795,14.0706967 70.9993795,15.9401164 C70.9993795,17.8095361 72.522236,19.324906 74.3998515,19.324906 C76.2779326,19.324906 77.8007891,17.8095361 77.8007891,15.9401164 C77.8007891,14.0706967 76.2779326,12.5557901 74.3998515,12.5557901 L74.3998515,12.5557901 Z M123.499985,8.20107101 C123.162918,7.85072859 122.721564,7.66536224 122.225274,7.66536224 C121.706637,7.66536224 121.250385,7.85304567 120.9068,8.20848566 C120.572525,8.5537305 120.396077,8.99536584 120.396077,9.48658668 L120.396077,17.4809742 C120.396077,18.2928788 120.263392,19.0732712 120.002211,19.8008341 C119.743358,20.520519 119.376494,21.1563256 118.912328,21.691571 C118.452352,22.2221822 117.910436,22.6313784 117.254924,22.9418671 C116.618033,23.2430874 115.892686,23.3960146 115.098901,23.3960146 C114.313497,23.3960146 113.578373,23.2412337 112.914014,22.9363061 C112.235224,22.6244272 111.6407,22.2013285 111.145806,21.6776685 C110.650447,21.1535451 110.254253,20.531641 109.969794,19.8295659 C109.686732,19.1302714 109.543804,18.3767571 109.543804,17.5903404 L109.543804,9.48658668 C109.543804,8.96709747 109.356648,8.51526698 109.005148,8.18021729 C108.664356,7.85536275 108.230451,7.68343546 107.750921,7.68343546 C107.277443,7.68343546 106.844935,7.85119201 106.501815,8.16770506 C106.134486,8.50507183 105.940347,8.96107307 105.940347,9.48658668 L105.940347,17.608877 C105.940347,18.8851243 106.173128,20.104835 106.631242,21.2332527 C107.08889,22.3644509 107.736023,23.3677463 108.553086,24.2144071 C109.371546,25.0638484 110.350159,25.7441429 111.462389,26.2358272 C112.582068,26.7312188 113.805567,26.9828536 115.098901,26.9828536 C116.40853,26.9828536 117.626443,26.730292 118.719119,26.2307296 C119.804812,25.7348746 120.752698,25.0462386 121.536241,24.1838216 C122.311869,23.3292827 122.923618,22.3204263 123.354264,21.1850574 C123.782582,20.0543226 124,18.8387828 124,17.5722671 L124,9.48658668 C124,8.98424386 123.826811,8.53936461 123.499985,8.20107101 L123.499985,8.20107101 Z M19.8996527,7.80855775 C19.458299,7.55321559 18.9708545,7.49760568 18.4903935,7.64821585 C18.0229683,7.79604552 17.6388789,8.11070491 17.3767669,8.55882807 L10.3928567,21.5942536 L3.40941201,8.55882807 C3.14730005,8.11070491 2.76274504,7.79604552 2.29531981,7.64821585 C1.81485881,7.49760568 1.32741438,7.55321559 0.886526236,7.80855775 C0.468916245,8.05046084 0.182595014,8.43185212 0.059220825,8.91148757 C-0.0669467419,9.40502549 0.0094055864,9.91014881 0.279432113,10.3721745 L8.6018359,25.9063385 C8.87279355,26.369291 9.28155785,26.6862674 9.7839003,26.8225117 C9.99154139,26.878585 10.1949924,26.8934143 10.3928567,26.8827558 C10.5907209,26.8934143 10.794172,26.878585 11.001813,26.8225117 C11.5041555,26.6862674 11.9129198,26.369291 12.1838774,25.9063385 L20.5062812,10.3721745 C20.7763078,9.91014881 20.8526601,9.40502549 20.7264925,8.91148757 C20.6031183,8.43185212 20.3167971,8.05046084 19.8996527,7.80855775 L19.8996527,7.80855775 Z M27.2802226,7.45960558 C26.7965026,7.45960558 26.3570112,7.63570362 26.0078389,7.97028989 C25.6493554,8.3146079 25.4598713,8.76458473 25.4598713,9.27156171 L25.4598713,25.1695072 C25.4598713,25.677411 25.6530799,26.1310952 26.0185469,26.4809742 C26.3733059,26.8206581 26.8095384,27 27.2802226,27 C27.7765127,27 28.2215909,26.8113897 28.5693664,26.4531692 C28.9041062,26.1060707 29.0810202,25.6625817 29.0810202,25.1695072 L29.0810202,9.27156171 C29.0810202,8.77987745 28.9078307,8.33963236 28.5786777,7.99716801 C28.2397479,7.64543535 27.7904796,7.45960558 27.2802226,7.45960558 L27.2802226,7.45960558 Z M44.8724508,7.45960558 L44.6852945,7.45960558 C43.2830188,7.45960558 41.9445252,7.73487462 40.7070588,8.27799804 C39.4821626,8.81648731 38.3987976,9.55656248 37.4872253,10.4778333 C36.5761185,11.3986406 35.8447191,12.4848875 35.3130462,13.7069152 C34.7753209,14.9419185 34.502501,16.2756295 34.502501,17.6700479 L34.502501,25.1060193 C34.502501,25.6143865 34.6924507,26.0648267 35.0513998,26.4072911 C35.3996409,26.7409505 35.8526337,26.917512 36.3596317,26.917512 C36.8456795,26.917512 37.281912,26.7312188 37.6208418,26.380413 C37.9499949,26.0398023 38.1241154,25.5990938 38.1241154,25.1060193 L38.1241154,17.6700479 C38.1241154,16.7585088 38.3000982,15.8914577 38.6483393,15.0925287 C39.0012361,14.2810875 39.4816971,13.5678904 40.0748243,12.9719376 C40.6651582,12.3792287 41.3695549,11.9033006 42.1698577,11.5585191 C42.9603836,11.2183719 43.8072427,11.0459812 44.6852945,11.0459812 L44.8724508,11.0459812 C45.3589641,11.0459812 45.7993867,10.8777612 46.1485589,10.5580042 C46.5163537,10.2187838 46.710959,9.76741671 46.710959,9.25302508 C46.710959,8.76180423 46.5414941,8.32526646 46.2193245,7.98975336 C45.9870086,7.74831368 45.5647429,7.45960558 44.8724508,7.45960558 L44.8724508,7.45960558 Z M67.0029869,21.7671078 C67.4317704,22.1647186 67.6249791,22.6906956 67.5542135,23.2551362 C67.4960181,23.7190155 67.2921015,24.1384069 66.9629485,24.4665053 C66.0881557,25.2937027 65.088592,25.91468 63.9740342,26.330364 C62.8701844,26.7423408 61.6778776,26.9513413 60.4310999,26.9513413 C59.0772428,26.9513413 57.7797188,26.7048041 56.5748418,26.2191442 C55.3736893,25.7339478 54.3080156,25.0573606 53.4071513,24.2074558 C52.4983724,23.3510633 51.7744219,22.3204263 51.2567159,21.1442768 C50.7362165,19.9639565 50.4722423,18.6765872 50.4722423,17.316925 L50.4722423,3.12110602 C50.4722423,2.62108027 50.6570708,2.17249369 51.0071741,1.82354153 C51.3577431,1.47458936 51.8018901,1.29061325 52.292128,1.29061325 C52.8028505,1.29061325 53.2521188,1.47644303 53.5915142,1.82817569 C53.9206673,2.17064003 54.0938567,2.61737295 54.0938567,3.12110602 L54.0938567,7.45960558 L61.9623366,7.45960558 C62.4390731,7.45960558 62.8767023,7.63199629 63.2291334,7.95777766 C63.6025149,8.30348592 63.7999136,8.75114567 63.7999136,9.25302508 C63.7999136,9.74100201 63.6183441,10.1803203 63.2747586,10.5223212 C62.9325698,10.8643221 62.4781803,11.0459812 61.9623366,11.0459812 L54.0938567,11.0459812 L54.0938567,17.316925 C54.0938567,18.1640492 54.2568037,18.9601977 54.5780422,19.6835899 C54.9030051,20.4143968 55.3546012,21.0571546 55.9216569,21.5947171 C56.4924371,22.1373771 57.171228,22.5692807 57.9412691,22.8802327 C58.7061891,23.1897946 59.5437369,23.3464291 60.4310999,23.3464291 C61.2341961,23.3464291 61.9804935,23.2277947 62.6485764,22.994233 C63.2947778,22.7676227 63.928409,22.3871582 64.5317786,21.8644251 C64.6765687,21.7258638 64.8497581,21.6067659 65.0592615,21.5015705 L65.1384072,21.4658874 C65.2468834,21.4227898 65.3432549,21.3922043 65.4303152,21.3699604 C65.9889908,21.2337161 66.5783935,21.3806189 67.0029869,21.7671078 L67.0029869,21.7671078 Z" id="Fill-1" fill="#F4F4F4" mask="url(#mask-2)"></path>
            </g>
        </g>
    </g>
</svg>