<?xml version="1.0" encoding="UTF-8"?>
<svg width="86px" height="86px" viewBox="0 0 86 86" version="1.1" xmlns="http://www.w3.org/2000/svg" xmlns:xlink="http://www.w3.org/1999/xlink">
    <!-- Generator: Sketch 61 (89581) - https://sketch.com -->
    <title>Group 2</title>
    <desc>Created with Sketch.</desc>
    <defs>
        <polygon id="path-1" points="0 0 55 0 55 55 0 55"></polygon>
    </defs>
    <g id="Main" stroke="none" stroke-width="1" fill="none" fill-rule="evenodd">
        <g id="Resources" transform="translate(-373.000000, -704.000000)">
            <g id="Group-2" transform="translate(374.000000, 705.000000)">
                <circle id="Oval-Copy-7" stroke="#979797" fill="#FFFFFF" cx="42" cy="42" r="42"></circle>
                <g id="Group-3" transform="translate(14.000000, 15.000000)">
                    <mask id="mask-2" fill="white">
                        <use xlink:href="#path-1"></use>
                    </mask>
                    <g id="Clip-2"></g>
                    <path d="M37.1315372,49.681458 C40.8335975,45.0475436 43.3280507,37.7844691 43.6751189,29.4896989 L51.5863708,29.4896989 C50.8462758,38.5594295 45.1156894,46.2107765 37.1315372,49.681458 L37.1315372,49.681458 Z M29.8193344,50.8320127 L29.8193344,29.4896989 L39.9223455,29.4896989 C39.4326466,38.9904913 35.5007924,48.792393 29.8193344,50.8320127 L29.8193344,50.8320127 Z M29.8193344,4.16957211 C35.5007924,6.20760697 39.4326466,16.0126783 39.9223455,25.5134707 L29.8193344,25.5134707 L29.8193344,4.16957211 Z M51.5863708,25.5134707 L43.6751189,25.5134707 C43.3280507,17.2171157 40.8335975,9.95562599 37.1315372,5.32012678 C45.1156894,8.79239303 50.8462758,16.4421553 51.5863708,25.5134707 L51.5863708,25.5134707 Z M25.8431062,25.5134707 L15.3866878,25.5134707 C15.8858954,15.8177496 19.9714739,5.80507132 25.8431062,4.05546751 L25.8431062,25.5134707 Z M25.8431062,50.9461173 C19.9714739,49.1949287 15.8858954,39.18542 15.3866878,29.4896989 L25.8431062,29.4896989 L25.8431062,50.9461173 Z M3.41362916,29.4896989 L11.6339144,29.4896989 C11.9857369,37.8985737 14.5435816,45.251981 18.3296355,49.8763867 C10.1061807,46.5023772 4.16798732,38.7337559 3.41362916,29.4896989 L3.41362916,29.4896989 Z M18.3296355,5.1251981 C14.5435816,9.7496038 11.9857369,17.1014263 11.6339144,25.5134707 L3.41362916,25.5134707 C4.16798732,16.2678288 10.1061807,8.49920761 18.3296355,5.1251981 L18.3296355,5.1251981 Z M27.4992076,0 C12.3122029,0 0,12.3137876 0,27.5007924 C0,42.6893819 12.3122029,55 27.4992076,55 C42.6877971,55 55,42.6893819 55,27.5007924 C55,12.3137876 42.6877971,0 27.4992076,0 L27.4992076,0 Z" id="Fill-1" fill="#C8C8C8" mask="url(#mask-2)"></path>
                </g>
            </g>
        </g>
    </g>
</svg>