<?xml version="1.0" encoding="UTF-8"?>
<svg width="30px" height="30px" viewBox="0 0 30 30" version="1.1" xmlns="http://www.w3.org/2000/svg" xmlns:xlink="http://www.w3.org/1999/xlink">
    <!-- Generator: Sketch 61 (89581) - https://sketch.com -->
    <title>4.0 logo</title>
    <desc>Created with Sketch.</desc>
    <g id="Symbols" stroke="none" stroke-width="1" fill="none" fill-rule="evenodd">
        <g id="Footer" transform="translate(-1379.000000, -38.000000)" fill="#FFFFFF">
            <g id="4.0-logo" transform="translate(1379.000000, 38.000000)">
                <path d="M17.3998282,23.1666667 L17.3998282,16.5 L19,16.5 L19,10.8090389 C19,10.1590051 18.5197337,9.83333333 18.0394673,9.83333333 L11.9596735,9.83333333 C11.4798368,9.83333333 11,10.1590051 11,10.8090389 L11,16.5 L12.5997423,16.5 L12.5997423,23.1666667 L17.3998282,23.1666667 Z" id="Fill-1"></path>
                <path d="M15,5 C16.166443,5 17,5.83320282 17,7.00022374 C17,8.16679718 16.166443,9 15,9 C13.833557,9 13,8.16679718 13,7.00022374 C13,6.00011187 13.833557,5 15,5" id="Fill-3"></path>
                <path d="M2.473125,14.7815625 C2.473125,21.579375 7.98375,27.09 14.7815625,27.09 C21.579375,27.09 27.09,21.579375 27.09,14.7815625 C27.09,7.98375 21.579375,2.473125 14.7815625,2.473125 C7.98375,2.473125 2.473125,7.98375 2.473125,14.7815625 M14.7815625,0 C22.9453125,0 29.563125,6.6178125 29.563125,14.7815625 C29.563125,22.9453125 22.9453125,29.563125 14.7815625,29.563125 C6.6178125,29.563125 0,22.9453125 0,14.7815625 C0,6.6178125 6.6178125,0 14.7815625,0" id="Fill-5"></path>
            </g>
        </g>
    </g>
</svg>