<?xml version="1.0" encoding="UTF-8"?>
<svg width="185px" height="22px" viewBox="0 0 185 22" version="1.1" xmlns="http://www.w3.org/2000/svg" xmlns:xlink="http://www.w3.org/1999/xlink">
    <!-- Generator: Sketch 61 (89581) - https://sketch.com -->
    <title>Group 16</title>
    <desc>Created with Sketch.</desc>
    <defs>
        <polygon id="path-1" points="0 1.42794118 184.405735 1.42794118 184.405735 22.0588235 0 22.0588235"></polygon>
    </defs>
    <g id="Symbols" stroke="none" stroke-width="1" fill="none" fill-rule="evenodd">
        <g id="Footer" transform="translate(-514.000000, -45.000000)">
            <g id="Group-16" transform="translate(514.000000, 44.000000)">
                <path d="M130.167941,9.58294118 C130.167941,8.30352941 128.99,8.12558824 128.242941,8.12558824 L127.04,8.12558824 L127.04,11.2285294 L128.015,11.2285294 C128.94,11.2285294 130.167941,10.9873529 130.167941,9.58294118" id="Fill-1" fill="#FFFFFF"></path>
                <path d="M127.786029,11.9898529 L127.013971,11.9898529 L127.013971,15.4486765 L127.925735,15.4486765 C129.103676,15.4486765 130.434559,15.1295588 130.434559,13.7251471 C130.434559,12.1530882 129.078676,11.9898529 127.786029,11.9898529" id="Fill-3" fill="#FFFFFF"></path>
                <path d="M118.461324,14.6366176 C118.942206,15.2189706 119.640735,15.5983824 120.551029,15.5983824 C122.628971,15.5983824 123.565735,13.6601471 123.565735,11.7866176 C123.565735,10.9630882 123.389265,10.1263235 122.995147,9.4425 L118.461324,14.6366176 Z" id="Fill-5" fill="#FFFFFF"></path>
                <path d="M55.6302941,9.65764706 C55.6302941,8.215 54.6038235,8.12529412 53.3994118,8.12529412 L52.5008824,8.12529412 L52.5008824,11.2797059 L53.4244118,11.2797059 C54.4508824,11.2797059 55.6302941,10.8870588 55.6302941,9.65764706" id="Fill-7" fill="#FFFFFF"></path>
                <path d="M120.551618,7.97308824 C118.473676,7.97308824 117.536912,9.90985294 117.536912,11.7863235 C117.536912,12.5980882 117.714853,13.4069118 118.081029,14.0672059 L122.603088,8.89808824 C122.110441,8.3275 121.438382,7.97308824 120.551618,7.97308824" id="Fill-9" fill="#FFFFFF"></path>
                <polygon id="Fill-11" fill="#FFFFFF" points="157.700441 13.0770588 161.538676 13.0770588 159.626912 8.20205882"></polygon>
                <g id="Group-15" transform="translate(0.000000, 0.042794)">
                    <mask id="mask-2" fill="white">
                        <use xlink:href="#path-1"></use>
                    </mask>
                    <g id="Clip-14"></g>
                    <path d="M178.441029,16.1635294 L177.263088,16.1635294 L172.841029,8.53852941 L172.8175,8.53852941 L172.8175,16.1635294 L171.9425,16.1635294 L171.9425,7.32235294 L173.043971,7.32235294 L177.541029,15.0988235 L177.566029,15.0988235 L177.566029,7.32235294 L178.441029,7.32235294 L178.441029,16.1635294 Z M167.532206,16.1635294 L166.593971,16.1635294 L163.301324,7.32235294 L164.226324,7.32235294 L167.074853,15.29 L170.027794,7.32235294 L170.888088,7.32235294 L167.532206,16.1635294 Z M162.780735,16.1635294 L161.829265,13.7944118 L157.370441,13.7944118 L156.420441,16.1635294 L155.573382,16.1635294 L159.195441,7.32235294 L160.183676,7.32235294 L163.6925,16.1635294 L162.780735,16.1635294 Z M154.291029,16.1635294 L153.416029,16.1635294 L153.416029,11.9973529 L148.945441,11.9973529 L148.945441,16.1635294 L148.071912,16.1635294 L148.071912,7.32235294 L148.945441,7.32235294 L148.945441,11.2355882 L153.416029,11.2355882 L153.416029,7.32235294 L154.291029,7.32235294 L154.291029,16.1635294 Z M145.979265,16.1635294 L144.801324,16.1635294 L140.380735,8.53852941 L140.355735,8.53852941 L140.355735,16.1635294 L139.482206,16.1635294 L139.482206,7.32235294 L140.583676,7.32235294 L145.080735,15.0988235 L145.105735,15.0988235 L145.105735,7.32235294 L145.979265,7.32235294 L145.979265,16.1635294 Z M137.743971,16.1635294 L133.260147,16.1635294 L133.260147,7.32235294 L137.5925,7.32235294 L137.5925,8.08264706 L134.135147,8.08264706 L134.135147,11.2355882 L137.416029,11.2355882 L137.416029,11.9973529 L134.135147,11.9973529 L134.135147,15.4047059 L137.743971,15.4047059 L137.743971,16.1635294 Z M127.901324,16.1635294 L126.141029,16.1635294 L126.141029,7.32235294 L128.2425,7.32235294 C129.686618,7.32235294 131.0425,7.80323529 131.0425,9.50176471 C131.0425,10.6282353 130.523382,11.2988235 129.433676,11.515 L129.433676,11.54 C130.548382,11.7429412 131.308676,12.4767647 131.308676,13.6429412 C131.308676,15.5694118 129.736618,16.1635294 127.901324,16.1635294 L127.901324,16.1635294 Z M124.439559,11.7429412 C124.416029,14.4547059 123.098382,16.3164706 120.551324,16.3164706 C119.399853,16.3164706 118.486618,15.9370588 117.866029,15.265 L116.841029,16.4429412 L116.345441,16.0238235 L117.461618,14.7458824 C116.941029,13.9855882 116.676324,12.9458824 116.663088,11.7429412 C116.638088,9.34882353 117.8925,7.17088235 120.551324,7.17088235 C121.666029,7.17088235 122.539559,7.55176471 123.173382,8.19735294 L124.263088,6.95470588 L124.758676,7.37235294 L123.604265,8.70323529 C124.173382,9.515 124.452794,10.6047059 124.439559,11.7429412 L124.439559,11.7429412 Z M114.595441,16.1635294 L110.314559,11.7429412 L110.314559,16.1635294 L109.441029,16.1635294 L109.441029,7.32235294 L110.314559,7.32235294 L110.314559,11.2870588 L114.2925,7.32235294 L115.432206,7.32235294 L111.149853,11.49 L115.799853,16.1635294 L114.595441,16.1635294 Z M102.877794,16.1635294 L103.751324,16.1635294 L103.751324,7.32235294 L102.877794,7.32235294 L102.877794,16.1635294 Z M98.2645588,8.08264706 L95.6557353,8.08264706 L95.6557353,16.1635294 L94.7807353,16.1635294 L94.7807353,8.08264706 L92.1704412,8.08264706 L92.1704412,7.32235294 L98.2645588,7.32235294 L98.2645588,8.08264706 Z M91.2822059,16.1635294 L86.7998529,16.1635294 L86.7998529,7.32235294 L91.1307353,7.32235294 L91.1307353,8.08264706 L87.6733824,8.08264706 L87.6733824,11.2355882 L90.9542647,11.2355882 L90.9542647,11.9973529 L87.6733824,11.9973529 L87.6733824,15.4047059 L91.2822059,15.4047059 L91.2822059,16.1635294 Z M85.5939706,8.08264706 L82.9851471,8.08264706 L82.9851471,16.1635294 L82.1116176,16.1635294 L82.1116176,8.08264706 L79.5013235,8.08264706 L79.5013235,7.32235294 L85.5939706,7.32235294 L85.5939706,8.08264706 Z M78.6130882,16.1635294 L74.1277941,16.1635294 L74.1277941,7.32235294 L78.4616176,7.32235294 L78.4616176,8.08264706 L75.0027941,8.08264706 L75.0027941,11.2355882 L78.2836765,11.2355882 L78.2836765,11.9973529 L75.0027941,11.9973529 L75.0027941,15.4047059 L78.6130882,15.4047059 L78.6130882,16.1635294 Z M72.9233824,8.08264706 L70.3145588,8.08264706 L70.3145588,16.1635294 L69.4410294,16.1635294 L69.4410294,8.08264706 L66.8307353,8.08264706 L66.8307353,7.32235294 L72.9233824,7.32235294 L72.9233824,8.08264706 Z M64.8675,16.1635294 L65.7410294,16.1635294 L65.7410294,7.32235294 L64.8675,7.32235294 L64.8675,16.1635294 Z M60.3189706,16.3164706 C59.4572059,16.3164706 58.7866176,16.1385294 58.3160294,15.9370588 L58.4042647,15.0355882 C58.9248529,15.3664706 59.5336765,15.5561765 60.3557353,15.5561765 C61.4454412,15.5561765 62.3439706,14.9988235 62.3439706,13.7444118 C62.3439706,12.0091176 58.2910294,11.7929412 58.2910294,9.47529412 C58.2910294,8.05617647 59.5336765,7.17088235 61.0910294,7.17088235 C61.5219118,7.17088235 62.2189706,7.23411765 62.8263235,7.46205882 L62.6866176,8.26058824 C62.2939706,8.04441176 61.6733824,7.92970588 61.0777941,7.92970588 C60.1675,7.92970588 59.1660294,8.31058824 59.1660294,9.45176471 C59.1660294,11.2252941 63.2175,11.2355882 63.2175,13.8208824 C63.2175,15.6061765 61.6851471,16.3164706 60.3189706,16.3164706 L60.3189706,16.3164706 Z M56.2263235,16.1635294 L54.9454412,13.1752941 C54.4380882,12.0341176 54.0586765,11.9973529 53.2233824,11.9973529 L52.5013235,11.9973529 L52.5013235,16.1635294 L51.6277941,16.1635294 L51.6277941,7.32235294 L53.9072059,7.32235294 C55.4777941,7.32235294 56.5042647,7.99294118 56.5042647,9.615 C56.5042647,10.7547059 55.6307353,11.515 54.5410294,11.6547059 L54.5410294,11.6797059 C55.2483824,11.7694118 55.4013235,12.1488235 55.6792647,12.7444118 L57.1880882,16.1635294 L56.2263235,16.1635294 Z M49.7498529,16.1635294 L45.2660294,16.1635294 L45.2660294,7.32235294 L49.5983824,7.32235294 L49.5983824,8.08264706 L46.1395588,8.08264706 L46.1395588,11.2355882 L49.4219118,11.2355882 L49.4219118,11.9973529 L46.1395588,11.9973529 L46.1395588,15.4047059 L49.7498529,15.4047059 L49.7498529,16.1635294 Z M40.7425,16.1635294 L39.8057353,16.1635294 L36.5116176,7.32235294 L37.4366176,7.32235294 L40.2851471,15.29 L43.2380882,7.32235294 L44.0983824,7.32235294 L40.7425,16.1635294 Z M34.5983824,16.1635294 L35.4719118,16.1635294 L35.4719118,7.32235294 L34.5983824,7.32235294 L34.5983824,16.1635294 Z M32.6454412,16.1635294 L31.4675,16.1635294 L27.0469118,8.53852941 L27.0219118,8.53852941 L27.0219118,16.1635294 L26.1469118,16.1635294 L26.1469118,7.32235294 L27.2498529,7.32235294 L31.7469118,15.0988235 L31.7719118,15.0988235 L31.7719118,7.32235294 L32.6454412,7.32235294 L32.6454412,16.1635294 Z M24.1557353,13.0723529 C24.1557353,15.6841176 22.2439706,16.3164706 20.9527941,16.3164706 C19.6601471,16.3164706 17.7469118,15.6841176 17.7469118,13.0723529 L17.7469118,7.32235294 L18.6204412,7.32235294 L18.6204412,13.0723529 C18.6204412,14.5164706 19.4189706,15.5561765 20.9527941,15.5561765 C22.4836765,15.5561765 23.2822059,14.5164706 23.2822059,13.0723529 L23.2822059,7.32235294 L24.1557353,7.32235294 L24.1557353,13.0723529 Z M13.0204412,13.1870588 L16.1998529,13.1870588 L16.1998529,12.3135294 L13.0204412,12.3135294 L13.0204412,13.1870588 Z M11.4101471,16.1635294 L10.5380882,16.1635294 L10.5380882,8.08264706 L7.92779412,8.08264706 L7.92779412,7.32235294 L14.0204412,7.32235294 L14.0204412,8.08264706 L11.4101471,8.08264706 L11.4101471,16.1635294 Z M5.96455882,16.1635294 L6.83808824,16.1635294 L6.83808824,7.32235294 L5.96455882,7.32235294 L5.96455882,16.1635294 Z M-0.000147058824,22.0591176 L184.405735,22.0591176 L184.405735,1.42823529 L-0.000147058824,1.42823529 L-0.000147058824,22.0591176 Z" id="Fill-13" fill="#FFFFFF" mask="url(#mask-2)"></path>
                </g>
            </g>
        </g>
    </g>
</svg>