<?xml version="1.0" encoding="UTF-8"?>
<svg width="126px" height="46px" viewBox="0 0 126 46" version="1.1" xmlns="http://www.w3.org/2000/svg" xmlns:xlink="http://www.w3.org/1999/xlink">
    <!-- Generator: Sketch 61 (89581) - https://sketch.com -->
    <title>Group 33</title>
    <desc>Created with Sketch.</desc>
    <defs>
        <polygon id="path-1" points="0 0.056 66.1188 0.056 66.1188 28.5062 0 28.5062"></polygon>
        <polygon id="path-3" points="0.06344 0.36936 5.6 0.36936 5.6 10.14816 0.06344 10.14816"></polygon>
    </defs>
    <g id="Symbols" stroke="none" stroke-width="1" fill="none" fill-rule="evenodd">
        <g id="universal_navbar" transform="translate(-30.000000, -21.000000)">
            <g id="Group-33" transform="translate(30.000000, 21.000000)">
                <polygon id="Fill-1" fill="#FFFFFF" points="33.05952 41.0706 4.73312 28.8822 -8e-05 30.9186 33.05952 45.1442 66.11872 30.9186 61.38552 28.8822"></polygon>
                <g id="Group-32" transform="translate(0.000000, 0.344000)">
                    <path d="M61.38544,20.39112 C55.00944,23.13432 39.52624,29.79752 33.05944,32.57992 L4.73344,20.39112 L0.00024,22.42792 L33.05944,36.65312 C39.84344,33.73392 59.87704,25.11392 66.11864,22.42792 L61.38544,20.39112 Z" id="Fill-2" fill="#FFFFFF"></path>
                    <g id="Group-6">
                        <mask id="mask-2" fill="white">
                            <use xlink:href="#path-1"></use>
                        </mask>
                        <g id="Clip-5"></g>
                        <path d="M34.7548,17.079 L33.0596,17.8086 L31.364,17.079 L26.6308,15.0422 L22.758,13.3758 L33.0596,8.943 L43.3608,13.3758 L39.488,15.0422 L34.7548,17.079 Z M33.0596,0.0558 L0,14.281 L33.0596,28.5062 L66.1188,14.281 L33.0596,0.0558 Z" id="Fill-4" fill="#FFFFFF" mask="url(#mask-2)"></path>
                    </g>
                    <path d="M73.02724,36.03916 C71.99924,36.03916 71.12564,35.85396 70.40724,35.48356 C69.68844,35.11396 69.04164,34.57476 68.46724,33.86676 L69.04724,33.33636 C69.60004,33.99956 70.18364,34.49196 70.79684,34.81236 C71.41044,35.13276 72.15924,35.29316 73.04404,35.29316 C73.99444,35.29316 74.76004,35.04436 75.34044,34.54676 C75.92084,34.04916 76.21084,33.39196 76.21084,32.57356 C76.21084,31.72236 75.95684,31.07556 75.44844,30.63316 C74.93964,30.19116 74.06084,29.81516 72.81164,29.50556 C71.42964,29.16316 70.44044,28.72076 69.84324,28.17916 C69.24604,27.63716 68.94804,26.88556 68.94804,25.92356 C68.94804,24.96196 69.29604,24.16876 69.99284,23.54436 C70.68924,22.91956 71.58444,22.60756 72.67884,22.60756 C73.58524,22.60756 74.35364,22.78956 74.98404,23.15436 C75.61444,23.51916 76.20004,24.03316 76.74204,24.69676 L76.17804,25.24396 C75.66924,24.62476 75.15204,24.15516 74.62764,23.83436 C74.10244,23.51396 73.45244,23.35316 72.67884,23.35316 C71.79444,23.35316 71.08444,23.58036 70.54844,24.03316 C70.01164,24.48676 69.74404,25.07796 69.74404,25.80756 C69.74404,26.62596 69.98964,27.24196 70.48164,27.65676 C70.97364,28.07116 71.83884,28.43316 73.07684,28.74276 C74.46964,29.09716 75.47044,29.55556 76.07844,30.11916 C76.68644,30.68276 76.99044,31.50116 76.99044,32.57356 C76.99044,33.56836 76.62564,34.39516 75.89604,35.05236 C75.16644,35.71076 74.21004,36.03916 73.02724,36.03916" id="Fill-7" fill="#FFFFFF"></path>
                    <polygon id="Fill-9" fill="#FFFFFF" points="83.93856 35.93956 83.93856 23.41996 79.79256 23.41996 79.79256 22.67356 88.91336 22.67356 88.91336 23.41996 84.76776 23.41996 84.76776 35.93956"></polygon>
                    <path d="M98.21612,31.04776 L95.94412,23.98376 L93.67252,31.04776 L98.21612,31.04776 Z M99.77452,35.93936 L98.44852,31.79416 L93.42372,31.79416 L92.09692,35.93936 L91.23492,35.93936 L95.67932,22.67336 L96.25932,22.67336 L100.70332,35.93936 L99.77452,35.93936 Z" id="Fill-11" fill="#FFFFFF"></path>
                    <path d="M107.73468,36.1056 C106.35228,36.1056 105.30228,35.7108 104.58388,34.92 C103.86508,34.13 103.50588,32.9936 103.50588,31.5124 L103.50588,27.1676 C103.50588,25.6528 103.86788,24.4972 104.59188,23.7016 C105.31588,22.9056 106.36908,22.508 107.75148,22.508 C109.03348,22.508 110.02828,22.8368 110.73588,23.4948 C111.44308,24.1524 111.83588,25.1832 111.91348,26.5872 L111.08428,26.67 C110.97348,25.3984 110.67548,24.512 110.18868,24.0084 C109.70188,23.5056 108.88428,23.254 107.73468,23.254 C106.52948,23.254 105.66188,23.572 105.13108,24.2072 C104.60068,24.8436 104.33508,25.8848 104.33508,27.3332 L104.33508,31.3468 C104.33508,32.7724 104.60068,33.798 105.13108,34.4224 C105.66188,35.0472 106.52948,35.3592 107.73468,35.3592 C108.91748,35.3592 109.76868,35.0972 110.28828,34.5716 C110.80788,34.0472 111.07308,33.1932 111.08428,32.0096 L111.91348,32.0924 C111.91348,33.3972 111.55388,34.392 110.83548,35.0776 C110.11708,35.7636 109.08308,36.1056 107.73468,36.1056" id="Fill-13" fill="#FFFFFF"></path>
                    <polygon id="Fill-15" fill="#FFFFFF" points="116.27412 29.30676 116.27412 35.93956 115.44492 35.93956 115.44492 22.67356 116.27412 22.67356 116.27412 28.56076 117.66692 28.56076 122.79092 22.67356 123.88572 22.67356 118.47972 28.84236 123.83572 35.93956 122.79092 35.93956 117.83292 29.30676"></polygon>
                    <polygon id="Fill-17" fill="#FFFFFF" points="68.57824 19.55088 68.53984 9.77688 74.89304 9.75208 74.89704 10.85168 69.76584 10.87208 69.77704 13.68168 74.29744 13.66368 74.30184 14.76368 69.78104 14.78128 69.79544 18.44648 74.92704 18.42648 74.93104 19.52608"></polygon>
                    <polygon id="Fill-19" fill="#FFFFFF" points="79.57352 19.50792 79.53952 10.83352 76.48512 10.84552 76.48072 9.74592 83.81152 9.71712 83.81552 10.81672 80.76152 10.82912 80.79552 19.50352"></polygon>
                    <polygon id="Fill-21" fill="#FFFFFF" points="85.68272 19.48448 85.64432 9.71008 86.86592 9.70528 86.88152 13.61488 90.54672 13.60048 90.53152 9.69128 91.75312 9.68648 91.79152 19.46048 90.56952 19.46488 90.55112 14.70008 86.88552 14.71448 86.90432 19.47928"></polygon>
                    <polygon id="Fill-23" fill="#FFFFFF" points="94.23488 19.45088 94.23088 18.35128 96.67408 18.34208 96.64408 10.76688 94.20088 10.77608 94.19648 9.67648 100.30528 9.65288 100.30968 10.75248 97.86648 10.76168 97.89608 18.33688 100.33968 18.32688 100.34368 19.42648"></polygon>
                    <path d="M105.96416,19.5274897 C104.82336,19.53184 103.96736,19.24384 103.39456,18.66384 C102.82256,18.08344 102.53376,17.20704 102.52936,16.03424 L102.517709,13.07744 C102.51336,11.88824 102.79496,10.99784 103.36256,10.40424 C103.93056,9.81184 104.78896,9.51344 105.93736,9.508585 C107.06136,9.50424 107.89456,9.76384 108.43896,10.28664 C108.98216,10.81024 109.28896,11.65064 109.35856,12.80584 L108.13736,12.93304 C108.05296,12.05384 107.85256,11.44624 107.53776,11.10904 C107.22296,10.77224 106.68656,10.60544 105.92936,10.60824 C105.12296,10.61144 104.55536,10.79944 104.22736,11.17064 C103.89816,11.54264 103.73616,12.17704 103.73976,13.07224 L103.75136,16.02944 C103.75456,16.90904 103.92216,17.52984 104.25336,17.89024 C104.58456,18.25184 105.15376,18.43104 105.95976,18.42784 C106.71696,18.42464 107.25176,18.25744 107.56456,17.92624 C107.87696,17.59544 108.07216,16.99824 108.14976,16.13424 L109.37216,16.25184 C109.31136,17.39224 109.01136,18.22224 108.47176,18.74144 C107.93176,19.26064 107.09616,19.52264 105.96416,19.5274897" id="Fill-25" fill="#FFFFFF"></path>
                    <path d="M115.70968,15.45752 L114.34808,10.97872 L113.00928,15.46752 L115.70968,15.45752 Z M116.89808,19.36232 L116.04368,16.55552 L112.68408,16.56832 L111.85208,19.38232 L110.60608,19.38672 L113.71968,9.60032 L115.00248,9.59552 L118.19288,19.35712 L116.89808,19.36232 Z" id="Fill-27" fill="#FFFFFF"></path>
                    <g id="Group-31" transform="translate(120.400000, 9.200000)">
                        <mask id="mask-4" fill="white">
                            <use xlink:href="#path-3"></use>
                        </mask>
                        <g id="Clip-30"></g>
                        <polygon id="Fill-29" fill="#FFFFFF" mask="url(#mask-4)" points="0.10184 10.14816 0.06344 0.37416 1.28544 0.36936 1.31944 9.04336 5.59584 9.02696 5.60024 10.12656"></polygon>
                    </g>
                </g>
            </g>
        </g>
    </g>
</svg>