<?xml version="1.0" encoding="utf-8"?>
<!-- Generator: Adobe Illustrator 24.0.3, SVG Export Plug-In . SVG Version: 6.00 Build 0)  -->
<svg version="1.1" id="Layer_1" xmlns="http://www.w3.org/2000/svg" xmlns:xlink="http://www.w3.org/1999/xlink" x="0px" y="0px"
	 viewBox="0 0 126 46" style="enable-background:new 0 0 126 46;" xml:space="preserve">
<style type="text/css">
	.st0{fill-rule:evenodd;clip-rule:evenodd;fill:#FFFFFF;}
	.st1{filter:url(#Adobe_OpacityMaskFilter);}
	.st2{mask:url(#mask-2_1_);fill-rule:evenodd;clip-rule:evenodd;fill:#FFFFFF;}
	.st3{filter:url(#Adobe_OpacityMaskFilter_1_);}
	.st4{mask:url(#mask-4_1_);fill-rule:evenodd;clip-rule:evenodd;fill:#FFFFFF;}
</style>
<title>Group 33</title>
<desc>Created with Sketch.</desc>
<g id="Symbols">
	<g id="universal_navbar" transform="translate(-30.000000, -21.000000)">
		<g id="Group-33" transform="translate(30.000000, 21.000000)">
			<polygon id="Fill-1" class="st0" points="33.1,41.1 4.7,28.9 0,30.9 33.1,45.1 66.1,30.9 61.4,28.9 			"/>
			<g id="Group-32" transform="translate(0.000000, 0.344000)">
				<path id="Fill-2" class="st0" d="M61.4,20.4c-6.4,2.7-21.9,9.4-28.3,12.2L4.7,20.4l-4.7,2l33.1,14.2
					c6.8-2.9,26.8-11.5,33.1-14.2L61.4,20.4z"/>
				<g id="Group-6">
					<g id="Clip-5">
					</g>
					<defs>
						<filter id="Adobe_OpacityMaskFilter" filterUnits="userSpaceOnUse" x="0" y="0.1" width="66.1" height="28.5">
							<feColorMatrix  type="matrix" values="1 0 0 0 0  0 1 0 0 0  0 0 1 0 0  0 0 0 1 0"/>
						</filter>
					</defs>
					<mask maskUnits="userSpaceOnUse" x="0" y="0.1" width="66.1" height="28.5" id="mask-2_1_">
						<g class="st1">
							<polygon id="path-1_1_" class="st0" points="0,0.1 66.1,0.1 66.1,28.5 0,28.5 							"/>
						</g>
					</mask>
					<path id="Fill-4" class="st2" d="M34.8,17.1l-1.7,0.7l-1.7-0.7l-4.7-2l-3.9-1.7l10.3-4.4l10.3,4.4L39.5,15L34.8,17.1z
						 M33.1,0.1L0,14.3l33.1,14.2l33.1-14.2L33.1,0.1z"/>
				</g>
				<path id="Fill-7" class="st0" d="M73,36c-1,0-1.9-0.2-2.6-0.6c-0.7-0.4-1.4-0.9-1.9-1.6l0.6-0.5c0.6,0.7,1.1,1.2,1.7,1.5
					c0.6,0.3,1.4,0.5,2.2,0.5c1,0,1.7-0.2,2.3-0.7s0.9-1.2,0.9-2c0-0.9-0.3-1.5-0.8-1.9c-0.5-0.4-1.4-0.8-2.6-1.1
					c-1.4-0.3-2.4-0.8-3-1.3c-0.6-0.5-0.9-1.3-0.9-2.3c0-1,0.3-1.8,1-2.4c0.7-0.6,1.6-0.9,2.7-0.9c0.9,0,1.7,0.2,2.3,0.5
					s1.2,0.9,1.8,1.5l-0.6,0.5c-0.5-0.6-1-1.1-1.6-1.4c-0.5-0.3-1.2-0.5-1.9-0.5c-0.9,0-1.6,0.2-2.1,0.7c-0.5,0.5-0.8,1-0.8,1.8
					c0,0.8,0.2,1.4,0.7,1.8c0.5,0.4,1.4,0.8,2.6,1.1c1.4,0.4,2.4,0.8,3,1.4c0.6,0.6,0.9,1.4,0.9,2.5c0,1-0.4,1.8-1.1,2.5
					C75.2,35.7,74.2,36,73,36"/>
				<polygon id="Fill-9" class="st0" points="83.9,35.9 83.9,23.4 79.8,23.4 79.8,22.7 88.9,22.7 88.9,23.4 84.8,23.4 84.8,35.9 
									"/>
				<path id="Fill-11" class="st0" d="M98.2,31L95.9,24L93.7,31H98.2z M99.8,35.9l-1.3-4.1h-5l-1.3,4.1h-0.9l4.4-13.3h0.6l4.4,13.3
					H99.8z"/>
				<path id="Fill-13" class="st0" d="M107.7,36.1c-1.4,0-2.4-0.4-3.2-1.2c-0.7-0.8-1.1-1.9-1.1-3.4v-4.3c0-1.5,0.4-2.7,1.1-3.5
					c0.7-0.8,1.8-1.2,3.2-1.2c1.3,0,2.3,0.3,3,1c0.7,0.7,1.1,1.7,1.2,3.1l-0.8,0.1c-0.1-1.3-0.4-2.2-0.9-2.7
					c-0.5-0.5-1.3-0.8-2.5-0.8c-1.2,0-2.1,0.3-2.6,1c-0.5,0.6-0.8,1.7-0.8,3.1v4c0,1.4,0.3,2.5,0.8,3.1c0.5,0.6,1.4,0.9,2.6,0.9
					c1.2,0,2-0.3,2.6-0.8c0.5-0.5,0.8-1.4,0.8-2.6l0.8,0.1c0,1.3-0.4,2.3-1.1,3C110.1,35.8,109.1,36.1,107.7,36.1"/>
				<polygon id="Fill-15" class="st0" points="116.3,29.3 116.3,35.9 115.4,35.9 115.4,22.7 116.3,22.7 116.3,28.6 117.7,28.6 
					122.8,22.7 123.9,22.7 118.5,28.8 123.8,35.9 122.8,35.9 117.8,29.3 				"/>
				<polygon id="Fill-17" class="st0" points="68.6,19.6 68.5,9.8 74.9,9.8 74.9,10.9 69.8,10.9 69.8,13.7 74.3,13.7 74.3,14.8 
					69.8,14.8 69.8,18.4 74.9,18.4 74.9,19.5 				"/>
				<polygon id="Fill-19" class="st0" points="79.6,19.5 79.5,10.8 76.5,10.8 76.5,9.7 83.8,9.7 83.8,10.8 80.8,10.8 80.8,19.5 				
					"/>
				<polygon id="Fill-21" class="st0" points="85.7,19.5 85.6,9.7 86.9,9.7 86.9,13.6 90.5,13.6 90.5,9.7 91.8,9.7 91.8,19.5 
					90.6,19.5 90.6,14.7 86.9,14.7 86.9,19.5 				"/>
				<polygon id="Fill-23" class="st0" points="94.2,19.5 94.2,18.4 96.7,18.3 96.6,10.8 94.2,10.8 94.2,9.7 100.3,9.7 100.3,10.8 
					97.9,10.8 97.9,18.3 100.3,18.3 100.3,19.4 				"/>
				<path id="Fill-25" class="st0" d="M106,19.5c-1.1,0-2-0.3-2.6-0.9c-0.6-0.6-0.9-1.5-0.9-2.6l0-3c0-1.2,0.3-2.1,0.8-2.7
					c0.6-0.6,1.4-0.9,2.6-0.9c1.1,0,2,0.3,2.5,0.8c0.5,0.5,0.9,1.4,0.9,2.5l-1.2,0.1c-0.1-0.9-0.3-1.5-0.6-1.8
					c-0.3-0.3-0.9-0.5-1.6-0.5c-0.8,0-1.4,0.2-1.7,0.6c-0.3,0.4-0.5,1-0.5,1.9l0,3c0,0.9,0.2,1.5,0.5,1.9c0.3,0.4,0.9,0.5,1.7,0.5
					c0.8,0,1.3-0.2,1.6-0.5c0.3-0.3,0.5-0.9,0.6-1.8l1.2,0.1c-0.1,1.1-0.4,2-0.9,2.5C107.9,19.3,107.1,19.5,106,19.5"/>
				<path id="Fill-27" class="st0" d="M115.7,15.5l-1.4-4.5l-1.3,4.5L115.7,15.5z M116.9,19.4l-0.9-2.8l-3.4,0l-0.8,2.8l-1.2,0
					l3.1-9.8l1.3,0l3.2,9.8L116.9,19.4z"/>
				<g id="Group-31" transform="translate(120.400000, 9.200000)">
					<g id="Clip-30">
					</g>
					<defs>
						<filter id="Adobe_OpacityMaskFilter_1_" filterUnits="userSpaceOnUse" x="0.1" y="0.4" width="5.5" height="9.8">
							<feColorMatrix  type="matrix" values="1 0 0 0 0  0 1 0 0 0  0 0 1 0 0  0 0 0 1 0"/>
						</filter>
					</defs>
					<mask maskUnits="userSpaceOnUse" x="0.1" y="0.4" width="5.5" height="9.8" id="mask-4_1_">
						<g class="st3">
							<polygon id="path-3_1_" class="st0" points="0.1,0.4 5.6,0.4 5.6,10.1 0.1,10.1 							"/>
						</g>
					</mask>
					<polygon id="Fill-29" class="st4" points="0.1,10.1 0.1,0.4 1.3,0.4 1.3,9 5.6,9 5.6,10.1 					"/>
				</g>
			</g>
		</g>
	</g>
</g>
</svg>
